<svg width="96" height="85" viewBox="0 0 96 85" fill="none" xmlns="http://www.w3.org/2000/svg">
<g id="arrow">
<path id="arrow_2" d="M94.8652 26.901L69.2246 1.25978C68.4926 0.527851 67.5171 0.126099 66.4769 0.126099C65.4356 0.126099 64.4607 0.528429 63.7287 1.25978L61.4008 3.58833C60.6694 4.3191 60.2665 5.2952 60.2665 6.33595C60.2665 7.37612 60.6694 8.38512 61.4008 9.11589L76.3591 24.1072H28.8357C26.693 24.1072 25 25.7846 25 27.9279V31.2198C25 33.3631 26.693 35.2096 28.8357 35.2096H76.5288L61.4013 50.2846C60.67 51.0165 60.2671 51.9661 60.2671 53.0068C60.2671 54.0464 60.67 55.0098 61.4013 55.7412L63.7293 58.0622C64.4612 58.7941 65.4362 59.193 66.4775 59.193C67.5177 59.193 68.4932 58.7889 69.2251 58.057L94.8657 32.4164C95.5994 31.6822 96.0029 30.702 96 29.6601C96.0023 28.6148 95.5994 27.634 94.8652 26.901Z" fill="black"/>
<rect id="rect" x="0.185791" y="24.069" width="20.7198" height="10.9538" rx="4" fill="#FFDE00"/>
<g id="scroll">
<path d="M20.949 84.144C19.641 84.144 18.585 83.886 17.781 83.37C17.397 83.142 17.205 82.818 17.205 82.398C17.205 82.158 17.271 81.966 17.403 81.822C17.535 81.666 17.697 81.588 17.889 81.588C18.093 81.588 18.375 81.684 18.735 81.876C19.119 82.056 19.467 82.194 19.779 82.29C20.103 82.386 20.511 82.434 21.003 82.434C21.507 82.434 21.897 82.35 22.173 82.182C22.461 82.014 22.605 81.78 22.605 81.48C22.605 81.276 22.545 81.114 22.425 80.994C22.317 80.874 22.113 80.766 21.813 80.67C21.525 80.562 21.081 80.442 20.481 80.31C19.413 80.094 18.645 79.788 18.177 79.392C17.721 78.996 17.493 78.45 17.493 77.754C17.493 77.226 17.649 76.752 17.961 76.332C18.273 75.9 18.699 75.57 19.239 75.342C19.791 75.102 20.415 74.982 21.111 74.982C21.615 74.982 22.101 75.048 22.569 75.18C23.037 75.3 23.457 75.48 23.829 75.72C24.213 75.96 24.405 76.278 24.405 76.674C24.405 76.914 24.339 77.118 24.207 77.286C24.075 77.442 23.913 77.52 23.721 77.52C23.589 77.52 23.457 77.496 23.325 77.448C23.205 77.388 23.049 77.304 22.857 77.196C22.509 77.016 22.209 76.884 21.957 76.8C21.705 76.704 21.393 76.656 21.021 76.656C20.577 76.656 20.223 76.746 19.959 76.926C19.707 77.106 19.581 77.352 19.581 77.664C19.581 77.964 19.713 78.192 19.977 78.348C20.241 78.504 20.751 78.66 21.507 78.816C22.311 78.984 22.941 79.176 23.397 79.392C23.853 79.608 24.177 79.878 24.369 80.202C24.573 80.526 24.675 80.94 24.675 81.444C24.675 82.26 24.333 82.914 23.649 83.406C22.977 83.898 22.077 84.144 20.949 84.144Z" fill="black"/>
<path d="M34.1853 84.144C33.3093 84.144 32.5353 83.958 31.8633 83.586C31.2033 83.214 30.6933 82.686 30.3333 82.002C29.9733 81.318 29.7933 80.52 29.7933 79.608C29.7933 78.696 29.9793 77.892 30.3513 77.196C30.7353 76.488 31.2693 75.942 31.9533 75.558C32.6373 75.174 33.4233 74.982 34.3113 74.982C34.7793 74.982 35.2473 75.048 35.7153 75.18C36.1953 75.312 36.6153 75.492 36.9753 75.72C37.3593 75.972 37.5513 76.29 37.5513 76.674C37.5513 76.938 37.4853 77.154 37.3533 77.322C37.2333 77.478 37.0713 77.556 36.8673 77.556C36.7353 77.556 36.5973 77.526 36.4533 77.466C36.3093 77.406 36.1653 77.334 36.0213 77.25C35.7573 77.094 35.5053 76.974 35.2653 76.89C35.0253 76.794 34.7493 76.746 34.4373 76.746C33.6933 76.746 33.1173 76.992 32.7093 77.484C32.3133 77.964 32.1153 78.66 32.1153 79.572C32.1153 80.472 32.3133 81.168 32.7093 81.66C33.1173 82.14 33.6933 82.38 34.4373 82.38C34.7373 82.38 35.0013 82.338 35.2293 82.254C35.4693 82.158 35.7333 82.032 36.0213 81.876C36.2013 81.768 36.3573 81.69 36.4893 81.642C36.6213 81.582 36.7533 81.552 36.8853 81.552C37.0773 81.552 37.2393 81.636 37.3713 81.804C37.5033 81.972 37.5693 82.182 37.5693 82.434C37.5693 82.638 37.5213 82.818 37.4253 82.974C37.3413 83.118 37.1973 83.25 36.9933 83.37C36.6213 83.61 36.1893 83.802 35.6973 83.946C35.2053 84.078 34.7013 84.144 34.1853 84.144Z" fill="black"/>
<path d="M47.7623 75.018C48.0743 74.994 48.3203 75.06 48.5003 75.216C48.6803 75.372 48.7703 75.606 48.7703 75.918C48.7703 76.242 48.6923 76.482 48.5363 76.638C48.3803 76.794 48.0983 76.896 47.6903 76.944L47.1503 76.998C46.4423 77.07 45.9203 77.31 45.5843 77.718C45.2603 78.126 45.0983 78.636 45.0983 79.248V83.028C45.0983 83.376 44.9903 83.646 44.7743 83.838C44.5583 84.018 44.2883 84.108 43.9643 84.108C43.6403 84.108 43.3703 84.018 43.1543 83.838C42.9503 83.646 42.8483 83.376 42.8483 83.028V76.062C42.8483 75.726 42.9503 75.468 43.1543 75.288C43.3703 75.108 43.6343 75.018 43.9463 75.018C44.2583 75.018 44.5103 75.108 44.7023 75.288C44.8943 75.456 44.9903 75.702 44.9903 76.026V76.746C45.2183 76.218 45.5543 75.81 45.9983 75.522C46.4543 75.234 46.9583 75.072 47.5103 75.036L47.7623 75.018Z" fill="black"/>
<path d="M57.3572 84.144C56.4572 84.144 55.6652 83.958 54.9812 83.586C54.3092 83.214 53.7872 82.68 53.4152 81.984C53.0432 81.288 52.8572 80.478 52.8572 79.554C52.8572 78.63 53.0432 77.826 53.4152 77.142C53.7872 76.446 54.3092 75.912 54.9812 75.54C55.6652 75.168 56.4572 74.982 57.3572 74.982C58.2572 74.982 59.0432 75.168 59.7152 75.54C60.3992 75.912 60.9212 76.446 61.2812 77.142C61.6532 77.826 61.8392 78.63 61.8392 79.554C61.8392 80.478 61.6532 81.288 61.2812 81.984C60.9212 82.68 60.3992 83.214 59.7152 83.586C59.0432 83.958 58.2572 84.144 57.3572 84.144ZM57.3392 82.398C58.0712 82.398 58.6292 82.158 59.0132 81.678C59.3972 81.198 59.5892 80.49 59.5892 79.554C59.5892 78.63 59.3972 77.928 59.0132 77.448C58.6292 76.956 58.0772 76.71 57.3572 76.71C56.6372 76.71 56.0792 76.956 55.6832 77.448C55.2992 77.928 55.1072 78.63 55.1072 79.554C55.1072 80.49 55.2992 81.198 55.6832 81.678C56.0672 82.158 56.6192 82.398 57.3392 82.398Z" fill="black"/>
<path d="M68.5927 84.108C68.2687 84.108 67.9987 84.018 67.7827 83.838C67.5787 83.646 67.4767 83.376 67.4767 83.028V72.282C67.4767 71.934 67.5787 71.67 67.7827 71.49C67.9987 71.31 68.2687 71.22 68.5927 71.22C68.9167 71.22 69.1867 71.31 69.4027 71.49C69.6187 71.67 69.7267 71.934 69.7267 72.282V83.028C69.7267 83.376 69.6187 83.646 69.4027 83.838C69.1867 84.018 68.9167 84.108 68.5927 84.108Z" fill="black"/>
<path d="M76.943 84.108C76.619 84.108 76.349 84.018 76.133 83.838C75.929 83.646 75.827 83.376 75.827 83.028V72.282C75.827 71.934 75.929 71.67 76.133 71.49C76.349 71.31 76.619 71.22 76.943 71.22C77.267 71.22 77.537 71.31 77.753 71.49C77.969 71.67 78.077 71.934 78.077 72.282V83.028C78.077 83.376 77.969 83.646 77.753 83.838C77.537 84.018 77.267 84.108 76.943 84.108Z" fill="black"/>
</g>
</g>
</svg>
