<svg width="96" height="85" viewBox="0 0 96 85" fill="none" xmlns="http://www.w3.org/2000/svg">
<g id="next">
<g id="Group 7">
<path id="Vector" d="M94.8652 26.901L69.2246 1.25978C68.4926 0.527851 67.5171 0.126099 66.4769 0.126099C65.4356 0.126099 64.4607 0.528429 63.7287 1.25978L61.4008 3.58833C60.6694 4.3191 60.2665 5.2952 60.2665 6.33595C60.2665 7.37612 60.6694 8.38512 61.4008 9.11589L76.3591 24.1072H28.8357C26.693 24.1072 25 25.7846 25 27.9279V31.2198C25 33.3631 26.693 35.2096 28.8357 35.2096H76.5288L61.4013 50.2846C60.67 51.0165 60.2671 51.9661 60.2671 53.0068C60.2671 54.0464 60.67 55.0098 61.4013 55.7412L63.7293 58.0622C64.4612 58.7941 65.4362 59.193 66.4775 59.193C67.5177 59.193 68.4932 58.7889 69.2251 58.057L94.8657 32.4164C95.5994 31.6822 96.0029 30.702 96 29.6601C96.0023 28.6148 95.5994 27.634 94.8652 26.901Z" fill="black"/>
<rect id="Rectangle 2" x="0.185791" y="24.069" width="20.7198" height="10.9538" rx="4" fill="#FFDE00"/>
</g>
<path id="scroll" d="M20.9488 84.144C19.6408 84.144 18.5848 83.886 17.7808 83.37C17.3968 83.142 17.2048 82.818 17.2048 82.398C17.2048 82.158 17.2708 81.966 17.4028 81.822C17.5348 81.666 17.6968 81.588 17.8888 81.588C18.0928 81.588 18.3748 81.684 18.7348 81.876C19.1188 82.056 19.4668 82.194 19.7788 82.29C20.1028 82.386 20.5108 82.434 21.0028 82.434C21.5068 82.434 21.8968 82.35 22.1728 82.182C22.4608 82.014 22.6048 81.78 22.6048 81.48C22.6048 81.276 22.5448 81.114 22.4248 80.994C22.3168 80.874 22.1128 80.766 21.8128 80.67C21.5248 80.562 21.0808 80.442 20.4808 80.31C19.4128 80.094 18.6448 79.788 18.1768 79.392C17.7208 78.996 17.4928 78.45 17.4928 77.754C17.4928 77.226 17.6488 76.752 17.9608 76.332C18.2728 75.9 18.6988 75.57 19.2388 75.342C19.7908 75.102 20.4148 74.982 21.1108 74.982C21.6148 74.982 22.1008 75.048 22.5688 75.18C23.0368 75.3 23.4568 75.48 23.8288 75.72C24.2128 75.96 24.4048 76.278 24.4048 76.674C24.4048 76.914 24.3388 77.118 24.2068 77.286C24.0748 77.442 23.9128 77.52 23.7208 77.52C23.5888 77.52 23.4568 77.496 23.3248 77.448C23.2048 77.388 23.0488 77.304 22.8568 77.196C22.5088 77.016 22.2088 76.884 21.9568 76.8C21.7048 76.704 21.3928 76.656 21.0208 76.656C20.5768 76.656 20.2228 76.746 19.9588 76.926C19.7068 77.106 19.5808 77.352 19.5808 77.664C19.5808 77.964 19.7128 78.192 19.9768 78.348C20.2408 78.504 20.7508 78.66 21.5068 78.816C22.3108 78.984 22.9408 79.176 23.3968 79.392C23.8528 79.608 24.1768 79.878 24.3688 80.202C24.5728 80.526 24.6748 80.94 24.6748 81.444C24.6748 82.26 24.3328 82.914 23.6488 83.406C22.9768 83.898 22.0768 84.144 20.9488 84.144ZM34.1851 84.144C33.3091 84.144 32.5351 83.958 31.8631 83.586C31.2031 83.214 30.6931 82.686 30.3331 82.002C29.9731 81.318 29.7931 80.52 29.7931 79.608C29.7931 78.696 29.9791 77.892 30.3511 77.196C30.7351 76.488 31.2691 75.942 31.9531 75.558C32.6371 75.174 33.4231 74.982 34.3111 74.982C34.7791 74.982 35.2471 75.048 35.7151 75.18C36.1951 75.312 36.6151 75.492 36.9751 75.72C37.3591 75.972 37.5511 76.29 37.5511 76.674C37.5511 76.938 37.4851 77.154 37.3531 77.322C37.2331 77.478 37.0711 77.556 36.8671 77.556C36.7351 77.556 36.5971 77.526 36.4531 77.466C36.3091 77.406 36.1651 77.334 36.0211 77.25C35.7571 77.094 35.5051 76.974 35.2651 76.89C35.0251 76.794 34.7491 76.746 34.4371 76.746C33.6931 76.746 33.1171 76.992 32.7091 77.484C32.3131 77.964 32.1151 78.66 32.1151 79.572C32.1151 80.472 32.3131 81.168 32.7091 81.66C33.1171 82.14 33.6931 82.38 34.4371 82.38C34.7371 82.38 35.0011 82.338 35.2291 82.254C35.4691 82.158 35.7331 82.032 36.0211 81.876C36.2011 81.768 36.3571 81.69 36.4891 81.642C36.6211 81.582 36.7531 81.552 36.8851 81.552C37.0771 81.552 37.2391 81.636 37.3711 81.804C37.5031 81.972 37.5691 82.182 37.5691 82.434C37.5691 82.638 37.5211 82.818 37.4251 82.974C37.3411 83.118 37.1971 83.25 36.9931 83.37C36.6211 83.61 36.1891 83.802 35.6971 83.946C35.2051 84.078 34.7011 84.144 34.1851 84.144ZM47.7622 75.018C48.0742 74.994 48.3202 75.06 48.5002 75.216C48.6802 75.372 48.7702 75.606 48.7702 75.918C48.7702 76.242 48.6922 76.482 48.5362 76.638C48.3802 76.794 48.0982 76.896 47.6902 76.944L47.1502 76.998C46.4422 77.07 45.9202 77.31 45.5842 77.718C45.2602 78.126 45.0982 78.636 45.0982 79.248V83.028C45.0982 83.376 44.9902 83.646 44.7742 83.838C44.5582 84.018 44.2882 84.108 43.9642 84.108C43.6402 84.108 43.3702 84.018 43.1542 83.838C42.9502 83.646 42.8482 83.376 42.8482 83.028V76.062C42.8482 75.726 42.9502 75.468 43.1542 75.288C43.3702 75.108 43.6342 75.018 43.9462 75.018C44.2582 75.018 44.5102 75.108 44.7022 75.288C44.8942 75.456 44.9902 75.702 44.9902 76.026V76.746C45.2182 76.218 45.5542 75.81 45.9982 75.522C46.4542 75.234 46.9582 75.072 47.5102 75.036L47.7622 75.018ZM57.357 84.144C56.457 84.144 55.665 83.958 54.981 83.586C54.309 83.214 53.787 82.68 53.415 81.984C53.043 81.288 52.857 80.478 52.857 79.554C52.857 78.63 53.043 77.826 53.415 77.142C53.787 76.446 54.309 75.912 54.981 75.54C55.665 75.168 56.457 74.982 57.357 74.982C58.257 74.982 59.043 75.168 59.715 75.54C60.399 75.912 60.921 76.446 61.281 77.142C61.653 77.826 61.839 78.63 61.839 79.554C61.839 80.478 61.653 81.288 61.281 81.984C60.921 82.68 60.399 83.214 59.715 83.586C59.043 83.958 58.257 84.144 57.357 84.144ZM57.339 82.398C58.071 82.398 58.629 82.158 59.013 81.678C59.397 81.198 59.589 80.49 59.589 79.554C59.589 78.63 59.397 77.928 59.013 77.448C58.629 76.956 58.077 76.71 57.357 76.71C56.637 76.71 56.079 76.956 55.683 77.448C55.299 77.928 55.107 78.63 55.107 79.554C55.107 80.49 55.299 81.198 55.683 81.678C56.067 82.158 56.619 82.398 57.339 82.398ZM68.5925 84.108C68.2685 84.108 67.9985 84.018 67.7825 83.838C67.5785 83.646 67.4765 83.376 67.4765 83.028V72.282C67.4765 71.934 67.5785 71.67 67.7825 71.49C67.9985 71.31 68.2685 71.22 68.5925 71.22C68.9165 71.22 69.1865 71.31 69.4025 71.49C69.6185 71.67 69.7265 71.934 69.7265 72.282V83.028C69.7265 83.376 69.6185 83.646 69.4025 83.838C69.1865 84.018 68.9165 84.108 68.5925 84.108ZM76.9428 84.108C76.6188 84.108 76.3488 84.018 76.1328 83.838C75.9288 83.646 75.8268 83.376 75.8268 83.028V72.282C75.8268 71.934 75.9288 71.67 76.1328 71.49C76.3488 71.31 76.6188 71.22 76.9428 71.22C77.2668 71.22 77.5368 71.31 77.7528 71.49C77.9688 71.67 78.0768 71.934 78.0768 72.282V83.028C78.0768 83.376 77.9688 83.646 77.7528 83.838C77.5368 84.018 77.2668 84.108 76.9428 84.108Z" fill="black"/>
</g>
</svg>
