<svg width="30" height="31" viewBox="0 0 30 31" fill="none" xmlns="http://www.w3.org/2000/svg">
<g clip-path="url(#clip0)">
<path d="M12.3423 20.3964C12.9648 20.0832 13.4355 19.7344 13.758 19.3575C14.3318 18.6787 14.615 17.7786 14.615 16.6629C14.615 15.5772 14.3318 14.649 13.7655 13.8708C12.8204 12.6032 11.2209 11.9544 8.95949 11.9207H0V30.209H8.35381C9.29514 30.209 10.1671 30.1284 10.9734 29.9634C11.7797 29.7965 12.4773 29.4908 13.0679 29.0446C13.593 28.6564 14.0318 28.1745 14.3806 27.6063C14.9319 26.7475 15.2075 25.7743 15.2075 24.6905C15.2075 23.6404 14.9656 22.7459 14.4856 22.0109C13.9999 21.2758 13.2873 20.7376 12.3423 20.3964ZM3.69593 15.0972H7.73126C8.61821 15.0972 9.34952 15.1928 9.92331 15.3822C10.5871 15.6578 10.919 16.2185 10.919 17.0736C10.919 17.8405 10.6659 18.3768 10.1652 18.6787C9.66079 18.9806 9.00636 19.1325 8.2038 19.1325H3.69593V15.0972ZM10.0771 26.7137C9.63079 26.9294 9.00261 27.0363 8.19817 27.0363H3.69593V22.159H8.26005C9.05512 22.1646 9.67392 22.2696 10.1165 22.4665C10.904 22.8228 11.2959 23.4754 11.2959 24.4298C11.2959 25.5549 10.8909 26.3125 10.0771 26.7137Z" fill="white"/>
<path d="M27.1169 12.7738H19.1719V15.0503H27.1169V12.7738Z" fill="white"/>
<path d="M29.8771 21.7577C29.7121 20.6982 29.3483 19.7663 28.782 18.9618C28.1614 18.0505 27.3738 17.383 26.4156 16.9611C25.4611 16.5373 24.3867 16.3254 23.1903 16.3273C21.182 16.3273 19.5506 16.9554 18.2887 18.2024C17.0304 19.4531 16.4004 21.2514 16.4004 23.5953C16.4004 26.0949 17.0961 27.9007 18.4949 29.0089C19.8882 30.119 21.4971 30.6722 23.3235 30.6722C25.5343 30.6722 27.2538 30.014 28.482 28.7014C29.2677 27.8726 29.7121 27.0569 29.8096 26.2562H26.1493C25.9374 26.6518 25.6918 26.9612 25.4105 27.1863C24.9005 27.5988 24.2367 27.8051 23.4228 27.8051C22.6484 27.8051 21.9921 27.6344 21.4446 27.295C20.5407 26.7512 20.0682 25.7987 20.0082 24.4429H29.9971C30.0121 23.2747 29.9746 22.3765 29.8771 21.7577ZM20.0982 22.1084C20.2295 21.2289 20.5482 20.5313 21.0545 20.0157C21.5608 19.5019 22.2771 19.2431 23.1941 19.2412C24.0398 19.2412 24.7467 19.4831 25.3224 19.9688C25.8905 20.4582 26.2112 21.1689 26.2768 22.1084H20.0982Z" fill="white"/>
</g>
<defs>
<clipPath id="clip0">
<rect y="0.67218" width="30" height="30" fill="white"/>
</clipPath>
</defs>
</svg>
