<svg width="166" height="261" viewBox="0 0 166 261" fill="none" xmlns="http://www.w3.org/2000/svg">
<path d="M59.131 242.9C59.131 242.9 55.5501 257.87 58.8055 258.521C62.0608 259.172 78.0119 258.962 81.9183 259.613C85.8246 260.264 93.963 259.172 93.963 256.243C93.963 253.314 85.4991 251.362 85.4991 251.362C85.4991 251.362 73.4544 244.853 73.1289 244.528C72.8034 244.202 59.131 242.9 59.131 242.9Z" fill="#2F2E41"/>
<path d="M62.9651 136.011C62.9651 136.011 64.1327 149.24 64.1327 150.407C64.1327 151.574 57.1269 213.051 58.6837 225.502C60.2406 237.952 58.5396 241.929 58.5396 244.264C58.5396 246.598 71.1385 245.734 71.1385 245.734L84.7609 159.745L77.7551 134.065L62.9651 136.011Z" fill="#2F2E41"/>
<path d="M63.688 246.177C63.688 246.177 60.4327 257.893 63.688 258.544C66.9433 259.195 82.8944 257.798 86.8008 258.449C90.7072 259.1 98.8455 259.195 98.8455 256.266C98.8455 253.337 90.3817 251.384 90.3817 251.384C90.3817 251.384 78.337 244.876 78.0114 244.55C77.6859 244.225 63.688 246.177 63.688 246.177Z" fill="#2F2E41"/>
<path d="M59.4617 120.447C59.4617 120.447 54.7911 131.731 60.2401 137.567C65.689 143.403 71.9164 155.076 71.9164 155.854C71.9164 156.633 61.0186 234.061 62.5754 239.12C64.1322 244.178 63.743 247.291 63.3538 248.069C62.9646 248.847 67.2459 253.127 71.9164 253.127C76.5869 253.127 83.5927 249.625 84.3711 246.512C85.1495 243.4 83.2035 216.552 83.5927 211.494C83.9819 206.436 99.5503 125.505 97.6043 123.56C95.6583 121.614 59.4617 120.447 59.4617 120.447Z" fill="#2F2E41"/>
<path d="M89.0418 30.9564C96.3502 30.9564 102.275 25.0335 102.275 17.7273C102.275 10.4211 96.3502 4.4982 89.0418 4.4982C81.7333 4.4982 75.8086 10.4211 75.8086 17.7273C75.8086 25.0335 81.7333 30.9564 89.0418 30.9564Z" fill="#FDA57D"/>
<path d="M80.8682 24.3418C80.8682 24.3418 83.5926 38.7382 81.6466 40.2946C79.7005 41.8509 96.4366 44.1855 96.4366 44.1855C96.4366 44.1855 98.3826 25.12 98.7718 23.1746C99.1611 21.2291 80.8682 24.3418 80.8682 24.3418Z" fill="#FDA57D"/>
<path d="M98.7726 43.0181C98.7726 43.0181 101.283 29.3087 82.2118 33.1996C82.2118 33.1996 64.799 47.4728 65.5774 60.7019C66.3558 73.9309 59.4623 112.276 60.2408 115C61.0192 117.723 55.5702 121.225 57.9055 122.393C60.2408 123.56 102.275 130.563 103.443 122.393C104.611 114.222 103.054 93.5999 103.832 89.709C104.611 85.8181 103.832 53.1345 101.497 49.2436C99.1618 45.3527 98.7726 43.0181 98.7726 43.0181Z" fill="#D99414"/>
<path d="M90.5986 137.956C90.5986 137.956 84.7604 160.134 92.1554 160.134C99.5504 160.134 99.1612 137.178 99.1612 137.178L90.5986 137.956Z" fill="#FDA57D"/>
<path d="M94.4339 19.935C94.2651 21.0507 92.5417 21.5142 90.012 21.2969L90.0081 21.2963C88.9369 21.196 87.8747 21.0143 86.831 20.7529C85.2523 20.3646 84.3628 21.7687 83.7891 23.7125C82.8473 26.9189 82.7763 31.6028 81.9478 32.2134C76.1643 35.4092 59.0751 13.9828 67.8321 8.43542C70.951 6.45964 81.45 -0.917285 88.7036 0.573185C95.9572 2.06365 93.0208 11.064 93.0208 11.064C93.0208 11.064 93.2868 12.2454 93.5886 13.7628C94.0182 15.6746 94.3087 17.615 94.4578 19.5687C94.4578 19.6912 94.4498 19.8136 94.4339 19.935Z" fill="#2F2E41"/>
<path d="M95.2698 46.909C95.2698 46.909 82.0366 46.1308 80.869 65.5854C79.7014 85.0399 80.0906 103.327 80.0906 103.716C80.0906 104.105 85.5395 141.069 90.5993 141.069C95.659 141.069 99.5511 140.291 100.719 138.345C101.886 136.4 97.605 108.385 97.605 108.385C97.605 108.385 95.659 78.8144 98.7726 69.4763C101.886 60.1381 102.276 48.0763 95.2698 46.909Z" fill="#D99414"/>
<path opacity="0.1" d="M80.2918 70.9356L76.4531 112.509L89.2488 141.29L80.9316 111.869L80.2918 70.296" fill="black"/>
<path opacity="0.1" d="M98.8462 75.4127L99.8238 124.424L96.2871 97.7983L98.8462 75.4127Z" fill="black"/>
<path d="M165.213 260.005H0.316406V258.658H165.458L165.213 260.005Z" fill="#3F3D56"/>
</svg>
