<svg width="30" height="31" viewBox="0 0 30 31" fill="none" xmlns="http://www.w3.org/2000/svg">
<g clip-path="url(#clip0)">
<path d="M20.4425 29.6347C20.4675 29.6272 20.4913 29.6172 20.5163 29.6084C35.785 23.5422 31.5612 0.67218 15 0.67218C6.68875 0.67218 0 7.44718 0 15.6722C0 26.0809 10.5425 33.5084 20.4425 29.6347ZM6.60125 25.7459C7.66625 23.9559 11.1125 18.9059 16.995 17.1634C18.225 20.2997 19.0875 23.9584 19.1725 28.1072C14.715 29.6059 10.0138 28.5972 6.60125 25.7459ZM21.0163 27.3247C20.8525 23.3384 20.0387 19.8034 18.8787 16.7409C21.4812 16.3347 24.4937 16.6059 27.91 17.9747C27.1837 22.0509 24.5775 25.4772 21.0163 27.3247ZM28.1063 16.0359C24.3438 14.6222 21.0275 14.4459 18.1575 14.9934C17.7138 13.9934 17.2475 13.0322 16.7537 12.1472C21.1575 10.3884 23.76 8.24468 24.925 7.10968C26.9813 9.48968 28.2025 12.5709 28.1063 16.0359ZM23.5938 5.77468C22.5338 6.78343 20.0375 8.82093 15.7687 10.4872C13.6762 7.17718 11.4388 4.84218 10.0212 3.53468C14.5563 1.66718 19.7862 2.46468 23.5938 5.77468ZM8.22875 4.45093C9.29875 5.39218 11.6475 7.65218 13.9137 11.1472C10.8012 12.1497 6.89875 12.8859 2.1525 12.9897C2.9075 9.37218 5.1625 6.30718 8.22875 4.45093ZM1.915 14.8722C7.2275 14.7859 11.5275 13.9472 14.9263 12.8122C15.3962 13.6359 15.8425 14.5334 16.2712 15.4659C10.3525 17.3509 6.65375 22.2172 5.2375 24.4147C2.9525 21.8647 1.6925 18.5372 1.915 14.8722Z" fill="white"/>
</g>
<defs>
<clipPath id="clip0">
<rect y="0.67218" width="30" height="30" fill="white"/>
</clipPath>
</defs>
</svg>
