<svg width="30" height="31" viewBox="0 0 30 31" fill="none" xmlns="http://www.w3.org/2000/svg">
<g clip-path="url(#clip0)">
<path d="M15 0.738647C6.76117 0.738647 0 7.49982 0 15.7386C0 22.7692 4.93332 29.1557 11.4844 30.7386V25.776C10.8353 25.9182 10.2379 25.9223 9.5771 25.7275C8.69064 25.4659 7.97035 24.8754 7.43568 23.975C7.09488 23.4 6.49086 22.7765 5.86075 22.8223L5.70625 21.0714C7.06879 20.9546 8.24753 21.9015 8.94722 23.0771C9.25804 23.5998 9.61578 23.9063 10.0749 24.0418C10.5187 24.1725 10.9953 24.1098 11.5505 23.9136C11.6899 22.8019 12.1992 22.3858 12.5839 21.7999V21.799C8.67691 21.2162 7.11983 19.1435 6.50185 17.5074C5.68291 15.3351 6.12236 12.6213 7.5705 10.9063C7.59865 10.8728 7.64946 10.7854 7.62978 10.7243C6.96579 8.71861 7.77489 7.05945 7.80464 6.88344C8.57094 7.11003 8.69545 6.65547 11.1333 8.13657L11.5546 8.38971C11.7309 8.49477 11.6755 8.4348 11.8517 8.42152C12.8696 8.14503 13.9426 7.99237 14.9998 7.97864C16.065 7.99237 17.1311 8.14503 18.1911 8.43274L18.3275 8.44647C18.3156 8.44464 18.3646 8.43777 18.4467 8.38879C21.492 6.54424 21.3826 7.14711 22.1992 6.88161C22.2288 7.05785 23.0271 8.74402 22.3702 10.7243C22.2816 10.9971 25.0104 13.4958 23.4979 17.5068C22.8799 19.1435 21.3231 21.2162 17.4161 21.799V21.7999C17.9169 22.5632 18.5186 22.9693 18.5154 24.544V30.7386C25.0667 29.1557 29.9998 22.7692 29.9998 15.7386C30 7.49982 23.2388 0.738647 15 0.738647V0.738647Z" fill="white"/>
</g>
<defs>
<clipPath id="clip0">
<rect y="0.738647" width="30" height="30" fill="white"/>
</clipPath>
</defs>
</svg>
