<svg width="301" height="233" viewBox="0 0 301 233" fill="none" xmlns="http://www.w3.org/2000/svg">
<g id="grad">
<g clip-path="url(#clip0)">
<g id="certi">
<path id="Vector" d="M24.4971 102.299C28.2088 96.6069 30.5269 91.5408 29.6747 90.9835C28.8225 90.4262 25.1228 94.5886 21.4111 100.281C17.6995 105.973 15.3814 111.039 16.2336 111.596C17.0857 112.153 20.7855 107.991 24.4971 102.299Z" fill="#E0E0E0"/>
<path id="Vector_2" d="M167.481 195.889C171.193 190.197 173.732 185.276 173.153 184.897C172.574 184.518 169.096 188.826 165.384 194.518C161.673 200.21 159.133 205.131 159.712 205.509C160.291 205.888 163.769 201.581 167.481 195.889Z" fill="#E0E0E0"/>
<path id="Vector_3" d="M89.4548 155.646L84.3628 150.308L66.5913 167.316L71.6833 172.654L89.4548 155.646Z" fill="#F55F44"/>
<path id="Vector_4" opacity="0.05" d="M74.0613 174.461L81.8563 177.3L90.2613 154.165L82.4663 151.327L74.0613 174.461Z" fill="black"/>
<path id="Vector_5" d="M74.9284 174.777L81.8563 177.3L90.2613 154.165L83.3334 151.642L74.9284 174.777Z" fill="#F55F44"/>
<path id="Vector_6" d="M30.0107 90.4682L15.8975 112.111L159.397 205.961L173.51 184.318L30.0107 90.4682Z" fill="url(#paint0_linear)"/>
<path id="Vector_7" d="M159.733 205.445C156.918 203.658 14.1762 110.25 16.2336 111.596C26.1773 99.7223 29.6747 90.9835 29.6747 90.9835L173.174 184.833C173.174 184.833 166.704 193.612 159.733 205.445Z" fill="#F5F5F5"/>
<path id="Vector_8" opacity="0.05" d="M104.253 139.758L92.4235 132.022L78.9823 152.634L90.812 160.371L104.253 139.758Z" fill="black"/>
<path id="Vector_9" d="M103.739 139.422L92.9377 132.358L79.4966 152.97L90.2976 160.034L103.739 139.422Z" fill="#F55F44"/>
<path id="Vector_10" opacity="0.05" d="M101.682 138.076L94.4808 133.367L81.0397 153.98L88.2404 158.689L101.682 138.076Z" fill="black"/>
<path id="Vector_11" d="M101.167 137.74L94.9951 133.703L81.554 154.316L87.726 158.352L101.167 137.74Z" fill="#F55F44"/>
</g>
<g id="hat">
<path id="Vector_12" d="M80.9414 133.027L71.1115 144.576C71.1115 144.576 72.3661 157.792 133.947 164.735C195.528 171.678 201.84 160.065 201.84 160.065L192.347 141.989L160.079 113.798L80.9414 133.027Z" fill="#6C63FF"/>
<path id="Vector_13" opacity="0.15" d="M80.9414 133.027L71.1115 144.576C71.1115 144.576 72.3661 157.792 133.947 164.735C195.528 171.678 201.84 160.065 201.84 160.065L192.347 141.989L160.079 113.798L80.9414 133.027Z" fill="black"/>
<path id="Vector_14" d="M263.942 107.563L148.686 142.996L20.912 78.7677L149.899 37.5452L206.687 72.41L208.721 73.661L263.942 107.563Z" fill="#6C63FF"/>
<path id="Vector_15" opacity="0.15" d="M263.942 107.563L148.686 142.996L20.912 78.7677L149.899 37.5452L206.687 72.41L208.721 73.661L263.942 107.563Z" fill="black"/>
<path id="Vector_16" d="M206.416 112.514L204.315 112.393L206.687 72.41L208.721 73.661L206.416 112.514Z" fill="#F5F5F5"/>
<path id="Vector_17" d="M87.8617 86.5236L71.1115 144.576C71.1115 144.576 143.678 130.219 201.84 160.065L200.228 96.3058C200.228 96.3058 119.719 76.5251 87.8617 86.5236Z" fill="#6C63FF"/>
<path id="Vector_18" d="M204.812 124.572C210.38 125.232 215.264 122.648 215.72 118.801C216.175 114.954 212.031 111.301 206.462 110.641C200.894 109.981 196.01 112.565 195.554 116.412C195.098 120.259 199.243 123.912 204.812 124.572Z" fill="#F5F5F5"/>
</g>
</g>
</g>
<defs>
<linearGradient id="paint0_linear" x1="87.647" y1="159.036" x2="101.789" y2="137.412" gradientUnits="userSpaceOnUse">
<stop stop-color="#808080" stop-opacity="0.25"/>
<stop offset="0.53514" stop-color="#808080" stop-opacity="0.12"/>
<stop offset="1" stop-color="#808080" stop-opacity="0.1"/>
</linearGradient>
<clipPath id="clip0">
<rect x="24.4554" y="0.079895" width="278.479" height="201.319" transform="rotate(6.75718 24.4554 0.079895)" fill="white"/>
</clipPath>
</defs>
</svg>
