<svg width="537" height="446" viewBox="0 0 537 446" fill="none" xmlns="http://www.w3.org/2000/svg">
<g id="undraw_Hello_qnas 1">
<g clip-path="url(#clip0)">
<g id="bg">
<ellipse id="Ellipse 5" cx="226.629" cy="430.436" rx="121.659" ry="15.0641" fill="#E6E6E6"/>
<path id="Vector" d="M494.465 170.902C492.945 170.902 491.46 171.353 490.196 172.198C488.933 173.043 487.948 174.244 487.366 175.65C486.785 177.055 486.633 178.601 486.929 180.093C487.226 181.585 487.957 182.956 489.032 184.031C490.106 185.107 491.476 185.84 492.966 186.136C494.456 186.433 496.001 186.281 497.405 185.699C498.809 185.117 500.009 184.131 500.853 182.866C501.698 181.601 502.148 180.114 502.148 178.593C502.148 176.553 501.339 174.597 499.898 173.154C498.457 171.712 496.503 170.902 494.465 170.902V170.902ZM494.465 183.326C493.53 183.326 492.616 183.048 491.838 182.528C491.06 182.008 490.454 181.269 490.097 180.404C489.739 179.539 489.645 178.588 489.828 177.67C490.01 176.751 490.46 175.908 491.122 175.246C491.783 174.584 492.625 174.133 493.542 173.951C494.46 173.768 495.41 173.862 496.274 174.22C497.138 174.578 497.877 175.185 498.396 175.963C498.916 176.742 499.193 177.657 499.193 178.593C499.193 179.848 498.695 181.052 497.808 181.94C496.922 182.827 495.719 183.326 494.465 183.326Z" fill="#6C63FF"/>
<path id="Vector_2" opacity="0.1" d="M494.465 170.902C492.945 170.902 491.46 171.353 490.196 172.198C488.933 173.043 487.948 174.244 487.366 175.65C486.785 177.055 486.633 178.601 486.929 180.093C487.226 181.585 487.957 182.956 489.032 184.031C490.106 185.107 491.476 185.84 492.966 186.136C494.456 186.433 496.001 186.281 497.405 185.699C498.809 185.117 500.009 184.131 500.853 182.866C501.698 181.601 502.148 180.114 502.148 178.593C502.148 176.553 501.339 174.597 499.898 173.154C498.457 171.712 496.503 170.902 494.465 170.902V170.902ZM494.465 183.326C493.53 183.326 492.616 183.048 491.838 182.528C491.06 182.008 490.454 181.269 490.097 180.404C489.739 179.539 489.645 178.588 489.828 177.67C490.01 176.751 490.46 175.908 491.122 175.246C491.783 174.584 492.625 174.133 493.542 173.951C494.46 173.768 495.41 173.862 496.274 174.22C497.138 174.578 497.877 175.185 498.396 175.963C498.916 176.742 499.193 177.657 499.193 178.593C499.193 179.848 498.695 181.052 497.808 181.94C496.922 182.827 495.719 183.326 494.465 183.326Z" fill="black"/>
<path id="Vector_3" d="M464.913 164.985H494.465V192.318C494.465 193.856 493.855 195.331 492.768 196.419C491.682 197.506 490.209 198.117 488.672 198.117H470.706C469.17 198.117 467.696 197.506 466.61 196.419C465.524 195.331 464.913 193.856 464.913 192.318V164.985Z" fill="#6C63FF"/>
<path id="Vector_4" opacity="0.1" d="M489.146 164.985V192.349C489.146 193.878 488.539 195.346 487.458 196.427C486.377 197.509 484.911 198.117 483.383 198.117H486.338C487.867 198.117 489.332 197.509 490.413 196.427C491.494 195.346 492.101 193.878 492.101 192.349V164.985H489.146Z" fill="black"/>
<path id="Vector_5" d="M263.33 205.103L201.539 397.802" stroke="#E0E0E0" stroke-width="8" stroke-miterlimit="10"/>
<path id="Vector_6" d="M222.334 157.523L254.98 192.214C255.668 192.945 256.518 193.502 257.461 193.843C258.404 194.183 259.414 194.296 260.409 194.172C261.404 194.048 262.355 193.692 263.187 193.131C264.018 192.57 264.706 191.821 265.194 190.945V183.998L263.924 172.826L261.547 165.255C261.547 165.255 205.777 107.067 197.974 109.943C190.171 112.82 222.334 157.523 222.334 157.523Z" fill="#0D0D0D"/>
<path id="Vector_7" d="M159.949 277.662L111.823 402.56" stroke="#BDBDBD" stroke-width="5" stroke-miterlimit="10"/>
<path id="Vector_8" d="M183.715 277.662L231.84 402.56" stroke="#BDBDBD" stroke-width="5" stroke-miterlimit="10"/>
<path id="Vector_9" d="M171.832 293.721C202.677 293.721 227.681 286.931 227.681 278.555C227.681 270.179 202.677 263.388 171.832 263.388C140.987 263.388 115.982 270.179 115.982 278.555C115.982 286.931 140.987 293.721 171.832 293.721Z" fill="#B84733"/>
<path id="Vector_10" d="M171.832 292.531C202.677 292.531 227.681 285.741 227.681 277.365C227.681 268.989 202.677 262.199 171.832 262.199C140.987 262.199 115.982 268.989 115.982 277.365C115.982 285.741 140.987 292.531 171.832 292.531Z" fill="#F55F44"/>
<path id="Vector_11" d="M148.331 305.103L201.026 321.357" stroke="#BDBDBD" stroke-width="5" stroke-miterlimit="10"/>
<path id="Vector_12" d="M195.332 305.103L142.638 321.357" stroke="#BDBDBD" stroke-width="5" stroke-miterlimit="10"/>
<path id="Vector_13" d="M172.482 108.754H189.062C197.886 108.754 206.349 112.263 212.589 118.509C218.828 124.755 222.334 133.226 222.334 142.06V230.083H127.271V154.011C127.271 142.008 132.034 130.497 140.513 122.009C148.992 113.522 160.491 108.754 172.482 108.754V108.754Z" fill="#0D0D0D"/>
<path id="Vector_14" d="M127.271 230.083H222.334V281.826H169.455C158.267 281.826 147.537 277.377 139.626 269.458C131.715 261.539 127.271 250.798 127.271 239.599V230.083V230.083Z" fill="#D99414"/>
<path id="Vector_15" opacity="0.05" d="M128.555 144.462L186.685 199.75H250.853V191.424L195.597 175.366L148.331 116.937C148.331 116.937 126.868 130.211 128.555 144.462Z" fill="black"/>
<path id="Vector_16" d="M128.555 143.273L186.685 198.561H250.853V190.234L195.597 174.176L148.331 115.748C148.331 115.748 126.868 129.022 128.555 143.273Z" fill="#0D0D0D"/>
<path id="Vector_17" opacity="0.05" d="M127.271 230.082V232.858L222.334 233.056V230.082H127.271Z" fill="black"/>
<path id="Vector_18" d="M201.219 285.123L265.165 290.957L268.635 421.666L291.528 414.205C291.528 414.205 325.766 266.114 293.118 253.631C260.47 241.148 225.178 224.711 204.108 238.107C183.037 251.503 201.219 285.123 201.219 285.123Z" fill="#D99414"/>
<path id="Vector_19" opacity="0.1" d="M205.104 244.951C205.104 244.951 240.158 262.794 244.911 283.015Z" fill="black"/>
<path id="Vector_20" d="M167.673 281.231L217.581 321.674L161.731 411.481L184.903 418.023C184.903 418.023 281.748 334.758 261.547 306.21C241.346 277.662 221.146 244.356 196.192 243.762C171.238 243.167 167.673 281.231 167.673 281.231Z" fill="#D99414"/>
<path id="Vector_21" opacity="0.05" d="M246.1 149.791L258.577 171.202L261.547 165.255L246.1 149.791Z" fill="black"/>
<path id="Vector_22" d="M161.731 411.481C161.731 411.481 143.313 425.755 157.572 430.513C171.832 435.271 200.945 438.839 200.945 438.839C200.945 438.839 205.698 430.513 199.162 426.944C192.627 423.376 183.715 425.16 183.715 425.16L184.903 418.023L161.731 411.481Z" fill="#333333"/>
<path id="Vector_23" d="M269.166 421.244C269.166 421.244 261.075 443.704 275.691 440.193C290.307 436.682 316.901 424.298 316.901 424.298C316.901 424.298 316.535 414.715 309.103 415.146C301.671 415.577 295.05 421.81 295.05 421.81L291.849 413.86L269.166 421.244Z" fill="#333333"/>
<path id="Vector_24" d="M174.802 87.9376H174.802C168.24 87.9376 162.92 93.2632 162.92 99.8326V111.728C162.92 118.297 168.24 123.623 174.802 123.623H174.802C181.365 123.623 186.685 118.297 186.685 111.728V99.8326C186.685 93.2632 181.365 87.9376 174.802 87.9376Z" fill="#FDA57D"/>
<path id="Vector_25" opacity="0.05" d="M174.802 89.1271C171.651 89.1271 168.628 90.3804 166.4 92.6111C164.172 94.8418 162.92 97.8673 162.92 101.022V105.063C170.638 107.605 178.967 107.605 186.685 105.063V101.022C186.685 97.8673 185.433 94.8418 183.205 92.6111C180.976 90.3804 177.954 89.1271 174.802 89.1271Z" fill="black"/>
<path id="Vector_26" d="M342.153 245.05C342.384 245.042 342.603 244.945 342.763 244.778C342.924 244.612 343.014 244.39 343.014 244.158C343.014 243.927 342.924 243.705 342.763 243.538C342.603 243.372 342.384 243.274 342.153 243.266C341.922 243.274 341.703 243.372 341.542 243.538C341.382 243.705 341.292 243.927 341.292 244.158C341.292 244.39 341.382 244.612 341.542 244.778C341.703 244.945 341.922 245.042 342.153 245.05Z" fill="url(#paint0_linear)"/>
<path id="Vector_27" d="M472.921 205.103L534.712 425.215" stroke="#E0E0E0" stroke-width="8" stroke-miterlimit="10"/>
<path id="Vector_28" d="M534.963 198.657H201.288V211.673H534.963V198.657Z" fill="#E0E0E0"/>
<path id="Vector_29" d="M334.33 195.587H287.393C285.26 195.587 283.531 197.318 283.531 199.453V199.453C283.531 201.588 285.26 203.319 287.393 203.319H334.33C336.463 203.319 338.192 201.588 338.192 199.453C338.192 197.318 336.463 195.587 334.33 195.587Z" fill="#535461"/>
<path id="Vector_30" d="M431.978 111.12H335.169C326.363 111.12 319.225 118.265 319.225 127.08V187.455C319.225 196.27 326.363 203.415 335.169 203.415H431.978C440.783 203.415 447.922 196.27 447.922 187.455V127.08C447.922 118.265 440.783 111.12 431.978 111.12Z" fill="#3E3F49"/>
<path id="Vector_31" d="M433.76 111.12H336.951C328.145 111.12 321.007 118.265 321.007 127.08V187.455C321.007 196.27 328.145 203.415 336.951 203.415H433.76C442.566 203.415 449.704 196.27 449.704 187.455V127.08C449.704 118.265 442.566 111.12 433.76 111.12Z" fill="#535461"/>
<path id="Vector_32" d="M391.368 160.794C393.665 160.794 395.527 158.93 395.527 156.631C395.527 154.332 393.665 152.468 391.368 152.468C389.071 152.468 387.209 154.332 387.209 156.631C387.209 158.93 389.071 160.794 391.368 160.794Z" fill="#E0E0E0"/>
</g>
<g id="hand">
<path id="Vector_33" d="M260.437 194.172C259.442 194.296 258.432 194.183 257.488 193.843L261.575 165.255L291.282 122.433L301.383 126.002L265.222 190.945C264.734 191.821 264.046 192.57 263.215 193.131C262.383 193.692 261.431 194.048 260.437 194.172Z" fill="#0D0D0D"/>
<path id="Vector_34" d="M291.254 122.433C291.254 122.433 298.978 99.2378 304.326 105.78C309.673 112.322 301.355 126.002 301.355 126.002L291.254 122.433Z" fill="#FDA57D"/>
</g>
<g id="head">
<path id="Vector_35" d="M173.614 102.212C197.24 102.212 216.392 83.0396 216.392 59.3897C216.392 35.7398 197.24 16.5678 173.614 16.5678C149.988 16.5678 130.836 35.7398 130.836 59.3897C130.836 83.0396 149.988 102.212 173.614 102.212Z" fill="black"/>
<path id="Vector_36" d="M174.802 105.78C195.803 105.78 212.828 88.7383 212.828 67.7162C212.828 46.6941 195.803 29.6523 174.802 29.6523C153.802 29.6523 136.777 46.6941 136.777 67.7162C136.777 88.7383 153.802 105.78 174.802 105.78Z" fill="#FDA57D"/>
<path id="Vector_37" d="M136.777 64.7995C136.777 64.7995 146.284 67.2518 151.631 56.4363C156.978 45.6209 161.137 39.7216 183.12 46.1125C205.104 52.5035 209.526 53.2832 210.583 47.2398C211.305 43.1102 203.488 33.0794 198.465 27.1407C196.014 24.2435 192.015 22.5153 187.742 22.5153H162.92L148.066 29.3978L136.777 39.23L134.401 52.5035L136.777 64.7995Z" fill="black"/>
<path id="Vector_38" d="M140.639 72.4742C142.772 72.4742 144.501 69.0126 144.501 64.7424C144.501 60.4723 142.772 57.0107 140.639 57.0107C138.506 57.0107 136.777 60.4723 136.777 64.7424C136.777 69.0126 138.506 72.4742 140.639 72.4742Z" fill="#FDA57D"/>
<path id="Vector_39" d="M137.879 44.8476C136.998 39.8688 136.132 34.6407 137.736 29.8462C138.522 27.5634 139.831 25.4965 141.558 23.8106C143.284 22.1248 145.381 20.8669 147.681 20.1376C150.677 19.2156 153.906 19.2352 156.883 18.2538C161.073 16.8726 164.357 13.6669 167.997 11.1716C171.214 8.96782 174.761 7.2921 178.506 6.20763C181.87 5.23432 185.831 4.85933 188.573 7.04059C190.882 8.87661 191.683 12.0238 193.591 14.274C195.81 16.8928 199.258 18.0281 202.268 19.6759C206.019 21.777 209.203 24.7611 211.544 28.3703C213.884 31.9795 215.311 36.105 215.702 40.3902C215.806 41.667 215.699 43.1838 214.623 43.8772C213.955 44.2175 213.202 44.3552 212.456 44.2732C197.259 44.0557 182.043 43.8374 166.908 42.4409C162.203 42.0067 157.489 41.4582 152.768 41.6373C145.46 41.9225 138.325 43.9379 131.946 47.5181" fill="black"/>
</g>
<g id="palmrest">
<path id="Vector_40" d="M250.853 190.234C250.853 190.234 281.748 192.613 273.43 198.561H250.853V190.234Z" fill="#FDA57D"/>
</g>
<g id="smoke">
<path id="Vector_41" d="M470.745 142.931C470.492 142.939 470.244 143.003 470.019 143.117C469.793 143.232 469.595 143.395 469.44 143.594C469.052 144.298 469.755 145.091 470.396 145.574C471.58 146.467 472.828 147.344 473.633 148.591C474.438 149.837 474.691 151.576 473.811 152.771C472.662 154.331 469.921 154.666 469.655 156.586C469.485 157.818 470.549 158.87 471.628 159.488C474.29 161.015 477.721 161.422 479.65 163.81C480.447 162.168 482.231 161.219 484.01 160.814C485.788 160.409 487.636 160.439 489.439 160.164C489.733 160.159 490.022 160.084 490.282 159.945C490.543 159.807 490.767 159.61 490.936 159.369C491.44 158.345 490.004 157.117 490.5 156.089C490.877 155.307 491.986 155.367 492.795 155.054C494.113 154.544 494.657 152.846 494.283 151.482C493.909 150.118 492.852 149.051 491.741 148.177C488.746 145.822 485.145 144.436 481.503 143.44C479.809 142.977 477.821 142.25 476.061 142.18C474.363 142.112 472.426 142.643 470.745 142.931Z" fill="#EEEEEE"/>
</g>
</g>
</g>
<defs>
<linearGradient id="paint0_linear" x1="1590.72" y1="1112.33" x2="1590.72" y2="1106.97" gradientUnits="userSpaceOnUse">
<stop stop-color="#808080" stop-opacity="0.25"/>
<stop offset="0.53514" stop-color="#808080" stop-opacity="0.12"/>
<stop offset="1" stop-color="#808080" stop-opacity="0.1"/>
</linearGradient>
<clipPath id="clip0">
<rect y="0.5" width="537" height="445" fill="white"/>
</clipPath>
</defs>
</svg>
