<svg width="30" height="31" viewBox="0 0 30 31" fill="none" xmlns="http://www.w3.org/2000/svg">
<g clip-path="url(#clip0)">
<path d="M29.9707 9.72035C29.9004 8.12634 29.6426 7.03046 29.2734 6.08088C28.8924 5.07291 28.3064 4.17048 27.5386 3.42029C26.7884 2.65842 25.88 2.06642 24.8837 1.69144C23.9286 1.32218 22.8385 1.06441 21.2445 0.994128C19.6385 0.917896 19.1287 0.900269 15.0557 0.900269C10.9826 0.900269 10.4728 0.917896 8.87281 0.988176C7.2788 1.05846 6.18293 1.31646 5.23357 1.68549C4.22538 2.06642 3.32295 2.65247 2.57276 3.42029C1.81089 4.17048 1.21911 5.07887 0.843904 6.07515C0.474646 7.03046 0.216875 8.12038 0.146594 9.7144C0.0703617 11.3203 0.0527344 11.8301 0.0527344 15.9032C0.0527344 19.9763 0.0703617 20.4861 0.140642 22.086C0.210923 23.6801 0.468923 24.7759 0.838181 25.7255C1.21911 26.7335 1.81089 27.6359 2.57276 28.3861C3.32295 29.148 4.23133 29.74 5.22762 30.115C6.18293 30.4842 7.27284 30.742 8.86709 30.8123C10.4668 30.8828 10.9769 30.9002 15.0499 30.9002C19.123 30.9002 19.6328 30.8828 21.2328 30.8123C22.8268 30.742 23.9227 30.4842 24.872 30.115C26.8882 29.3355 28.4822 27.7414 29.2617 25.7255C29.6307 24.7702 29.8887 23.6801 29.959 22.086C30.0293 20.4861 30.0469 19.9763 30.0469 15.9032C30.0469 11.8301 30.041 11.3203 29.9707 9.72035ZM27.2691 21.9688C27.2046 23.434 26.9585 24.2251 26.7533 24.7526C26.2492 26.0595 25.212 27.0968 23.905 27.6009C23.3776 27.806 22.5807 28.0521 21.1213 28.1164C19.539 28.1869 19.0644 28.2043 15.0616 28.2043C11.0588 28.2043 10.5783 28.1869 9.0017 28.1164C7.53657 28.0521 6.7454 27.806 6.21795 27.6009C5.56757 27.3605 4.97557 26.9796 4.49505 26.4814C3.99691 25.995 3.61597 25.4089 3.3756 24.7585C3.17048 24.2311 2.92439 23.434 2.86006 21.9748C2.78955 20.3924 2.77215 19.9177 2.77215 15.9149C2.77215 11.9121 2.78955 11.4316 2.86006 9.85519C2.92439 8.39006 3.17048 7.59889 3.3756 7.07144C3.61597 6.42083 3.99691 5.82906 4.501 5.34831C4.98724 4.85017 5.5733 4.46923 6.2239 4.22909C6.75135 4.02397 7.54847 3.77788 9.00765 3.71332C10.59 3.64304 11.0648 3.62541 15.0673 3.62541C19.0761 3.62541 19.5506 3.64304 21.1272 3.71332C22.5924 3.77788 23.3835 4.02397 23.911 4.22909C24.5614 4.46923 25.1534 4.85017 25.6339 5.34831C26.132 5.83478 26.513 6.42083 26.7533 7.07144C26.9585 7.59889 27.2046 8.39578 27.2691 9.85519C27.3394 11.4375 27.357 11.9121 27.357 15.9149C27.357 19.9177 27.3394 20.3865 27.2691 21.9688Z" fill="white"/>
<path d="M15.0562 8.19662C10.8016 8.19662 7.34961 11.6484 7.34961 15.9032C7.34961 20.158 10.8016 23.6098 15.0562 23.6098C19.311 23.6098 22.7628 20.158 22.7628 15.9032C22.7628 11.6484 19.311 8.19662 15.0562 8.19662ZM15.0562 20.9023C12.296 20.9023 10.0571 18.6636 10.0571 15.9032C10.0571 13.1428 12.296 10.9041 15.0562 10.9041C17.8166 10.9041 20.0553 13.1428 20.0553 15.9032C20.0553 18.6636 17.8166 20.9023 15.0562 20.9023Z" fill="white"/>
<path d="M24.8671 7.89191C24.8671 8.88545 24.0615 9.69105 23.0677 9.69105C22.0741 9.69105 21.2686 8.88545 21.2686 7.89191C21.2686 6.89814 22.0741 6.09277 23.0677 6.09277C24.0615 6.09277 24.8671 6.89814 24.8671 7.89191Z" fill="white"/>
</g>
<defs>
<clipPath id="clip0">
<rect y="0.900269" width="30" height="30" fill="white"/>
</clipPath>
</defs>
</svg>
