<svg width="69" height="32" viewBox="0 0 69 32" fill="none" xmlns="http://www.w3.org/2000/svg">
<path fill-rule="evenodd" clip-rule="evenodd" d="M54.1102 3C54.1102 4.65685 52.767 6 51.1102 6H3C1.34315 6 0 4.65685 0 3V3C0 1.34315 1.34315 0 3 0H51.1102C52.767 0 54.1102 1.34315 54.1102 3V3Z" fill="#FFDE00"/>
<path fill-rule="evenodd" clip-rule="evenodd" d="M54.1102 15.5337C54.1102 17.1905 52.767 18.5337 51.1102 18.5337H3C1.34315 18.5337 0 17.1905 0 15.5337V15.5337C0 13.8768 1.34315 12.5337 3 12.5337H51.1102C52.767 12.5337 54.1102 13.8768 54.1102 15.5337V15.5337Z" fill="#FFDE00"/>
<path fill-rule="evenodd" clip-rule="evenodd" d="M54.1102 28.0674C54.1102 29.7242 52.767 31.0674 51.1102 31.0674H3C1.34315 31.0674 0 29.7242 0 28.0674V28.0674C0 26.4105 1.34315 25.0674 3 25.0674H51.1102C52.767 25.0674 54.1102 26.4105 54.1102 28.0674V28.0674Z" fill="#FFDE00"/>
</svg>
