<svg width="437" height="370" viewBox="0 0 437 370" fill="none" xmlns="http://www.w3.org/2000/svg">
<g id="undraw_marketing_v0iu 1">
<g clip-path="url(#clip0)">
<g id="bg">
<path id="Vector" d="M234.1 342.266C124.403 333.918 -6.4159 248.92 0.244293 161.401C6.90449 73.8822 133.604 -7.59063 243.302 0.757338C352.999 9.10531 416.144 172.663 409.484 260.182C402.824 347.701 343.798 350.614 234.1 342.266Z" fill="#F2F2F2"/>
<path id="Vector_2" d="M208.736 32.3012H0.563477V247.714H208.736V32.3012Z" fill="#3F3D56"/>
<path id="Vector_3" d="M135.826 193.606L157.598 215.583" stroke="white" stroke-width="0.905097" stroke-miterlimit="10"/>
<path id="Vector_4" d="M150.657 58.9594L135.525 85.9417" stroke="white" stroke-width="0.905097" stroke-miterlimit="10"/>
<path id="Vector_5" d="M175.7 215.583H139.948V223.729H175.7V215.583Z" fill="#6C63FF"/>
<path id="Vector_6" d="M167.554 50.8557H131.802V59.0016H167.554V50.8557Z" fill="#FF6584"/>
<path id="Vector_7" d="M436.82 30.491H228.648V117.38H436.82V30.491Z" fill="#3F3D56"/>
<path id="Vector_8" d="M312.745 97.4682H289.213C287.607 88.1845 287.607 78.6939 289.213 69.4102H312.745C310.094 78.575 310.094 88.3034 312.745 97.4682Z" fill="#FF6584"/>
<path id="Vector_9" d="M378.515 97.4682H354.982C353.376 88.1845 353.376 78.6939 354.982 69.4102H378.515C375.864 78.575 375.864 88.3034 378.515 97.4682V97.4682Z" fill="#FF6584"/>
<path id="Vector_10" d="M279.334 78.4612H255.801C254.195 69.1774 254.195 59.6869 255.801 50.4031H279.334C276.683 59.5679 276.683 69.2964 279.334 78.4612V78.4612Z" fill="#6C63FF"/>
<path id="Vector_11" d="M321.42 78.4612H344.953C346.559 69.1774 346.559 59.6869 344.953 50.4031H321.42C324.072 59.5679 324.072 69.2964 321.42 78.4612Z" fill="#6C63FF"/>
<path id="Vector_12" d="M386.135 78.4612H409.667C411.273 69.1774 411.273 59.6869 409.667 50.4031H386.135C388.786 59.5679 388.786 69.2964 386.135 78.4612V78.4612Z" fill="#6C63FF"/>
<path id="Vector_13" d="M396.996 343.202C396.996 352.227 354.829 370 303.092 370C251.355 370 209.641 352.227 209.641 343.202C209.641 334.178 251.355 337.319 303.092 337.319C354.829 337.319 396.996 334.178 396.996 343.202Z" fill="#3F3D56"/>
<path id="Vector_14" opacity="0.1" d="M396.996 343.202C396.996 352.227 354.829 370 303.092 370C251.355 370 209.641 352.227 209.641 343.202C209.641 334.178 251.355 337.319 303.092 337.319C354.829 337.319 396.996 334.178 396.996 343.202Z" fill="black"/>
<path id="Vector_15" d="M303.092 359.591C354.829 359.591 396.77 352.276 396.77 343.251C396.77 334.226 354.829 326.91 303.092 326.91C251.355 326.91 209.415 334.226 209.415 343.251C209.415 352.276 251.355 359.591 303.092 359.591Z" fill="#3F3D56"/>
<path id="Vector_16" opacity="0.1" d="M303.092 356.039C343.582 356.039 376.405 350.314 376.405 343.251C376.405 336.188 343.582 330.463 303.092 330.463C262.603 330.463 229.779 336.188 229.779 343.251C229.779 350.314 262.603 356.039 303.092 356.039Z" fill="black"/>
<path id="Vector_17" d="M270.735 246.357H247.202C245.597 237.073 245.597 227.582 247.202 218.299H270.735C268.084 227.464 268.084 237.192 270.735 246.357Z" fill="#6C63FF"/>
<path id="Vector_18" d="M345.187 104.278L348.423 105.896C348.423 105.896 365.952 149.853 360.019 160.37C354.086 170.888 335.478 190.574 335.478 190.574L331.973 180.596L346.311 149.511L345.187 104.278Z" fill="#FFDE00"/>
<path id="Vector_19" opacity="0.1" d="M345.187 104.278L348.423 105.896C348.423 105.896 365.952 149.853 360.019 160.37C354.086 170.888 335.478 190.574 335.478 190.574L331.973 180.596L346.311 149.511L345.187 104.278Z" fill="black"/>
<path id="Vector_20" d="M341.681 324.063C341.681 324.063 346.265 334.58 343.838 335.389C341.411 336.198 338.445 336.198 335.478 336.198C332.512 336.198 329.006 335.119 328.467 334.041C327.927 332.962 330.624 325.951 330.624 325.951L341.681 324.063Z" fill="#F2F2F2"/>
<path id="Vector_21" d="M279.925 329.456C279.925 329.456 282.892 338.895 281.543 339.434C280.195 339.974 275.88 342.401 273.453 341.592C271.026 340.783 267.251 338.895 266.442 338.086C265.633 337.277 266.442 332.962 266.442 332.962L270.217 327.569L279.925 329.456Z" fill="#F2F2F2"/>
<path id="Vector_22" d="M333.051 189.225L336.917 190.574C336.917 190.574 337.905 199.743 336.827 202.979C335.748 206.215 333.321 229.677 334.669 234.531C336.018 239.385 335.209 247.206 335.209 247.206C335.209 247.206 343.299 273.634 341.681 279.297C340.063 284.96 340.333 293.05 341.951 297.095C343.569 301.14 344.917 302.759 344.108 305.995C343.299 309.231 341.681 310.849 343.299 313.545C344.917 316.242 348.153 317.051 346.535 319.478C344.917 321.905 343.299 323.793 343.838 325.411C344.378 327.029 329.546 329.996 328.197 327.569C328.197 327.569 332.512 323.793 328.197 321.636C323.882 319.478 325.231 311.388 325.231 311.388C325.231 311.388 317.68 280.376 317.95 277.948C318.219 275.521 306.084 237.767 306.084 237.767C306.084 237.767 288.285 291.702 287.207 294.129C286.128 296.556 288.555 302.489 287.207 304.107C285.858 305.725 287.746 309.77 285.858 311.388C283.971 313.006 289.094 318.939 285.858 321.096C282.622 323.254 281.004 329.996 281.274 331.344C281.543 332.692 267.79 331.074 267.79 329.187C267.79 327.299 268.06 325.681 266.711 322.445C265.363 319.209 264.554 317.051 265.633 315.973C266.711 314.894 267.52 313.545 266.442 309.77C265.363 305.995 268.06 294.399 267.251 292.241C266.442 290.084 266.711 275.521 266.711 275.521C266.711 275.521 269.408 254.217 268.599 250.711C267.79 247.205 268.599 246.396 268.869 245.048C269.138 243.7 270.756 229.137 271.835 226.98C272.914 224.823 274.262 187.877 280.465 185.989C286.667 184.102 333.051 189.225 333.051 189.225Z" fill="#2F2E41"/>
<path id="Vector_23" d="M335.209 333.771C335.209 333.771 344.917 332.153 345.457 333.771C345.996 335.389 347.614 348.064 343.839 348.334C340.063 348.603 333.591 349.412 332.512 346.985C331.433 344.558 326.31 342.94 326.31 342.94C326.31 342.94 318.759 340.783 318.759 338.356C318.759 335.929 319.028 332.153 320.377 331.883C321.725 331.614 327.119 328.647 327.119 327.569C327.119 326.49 335.209 333.771 335.209 333.771Z" fill="#2F2E41"/>
<path id="Vector_24" d="M274.532 338.086C274.532 338.086 281.543 335.929 283.161 337.277C284.779 338.625 286.937 353.457 283.161 353.188C279.386 352.918 269.408 354.536 268.869 352.379C268.329 350.221 261.048 349.682 261.048 349.682C261.048 349.682 253.228 345.906 253.767 341.861C254.306 337.816 255.115 336.468 258.351 336.198C261.587 335.929 264.015 332.153 264.284 331.883C264.554 331.614 266.932 329.642 267.226 331.842C267.52 334.041 271.026 338.895 274.532 338.086Z" fill="#2F2E41"/>
<path id="Vector_25" d="M296.645 76.7711C305.731 76.7711 313.096 69.4061 313.096 60.321C313.096 51.2358 305.731 43.8708 296.645 43.8708C287.56 43.8708 280.195 51.2358 280.195 60.321C280.195 69.4061 287.56 76.7711 296.645 76.7711Z" fill="#FDA57D"/>
<path id="Vector_26" d="M310.938 64.0964C310.938 64.0964 312.017 82.1646 316.062 83.7827C320.107 85.4007 295.566 85.4007 295.566 85.4007C295.566 85.4007 295.297 74.0744 291.791 71.3776C288.285 68.6809 310.938 64.0964 310.938 64.0964Z" fill="#FDA57D"/>
<path id="Vector_27" d="M317.41 79.7375C317.41 79.7375 300.69 73.535 294.757 83.2433C294.757 83.2433 275.88 92.1426 274.532 97.5361C273.183 102.93 285.858 143.381 285.858 143.381C285.858 143.381 285.858 176.82 283.161 180.326C280.464 183.832 275.341 187.607 278.846 188.416C282.352 189.225 337.366 195.158 337.096 191.653C336.826 188.147 333.321 185.18 337.096 183.023C340.872 180.866 337.635 178.438 340.063 171.427C342.49 164.415 348.422 106.435 348.422 106.435C348.422 106.435 344.377 99.1541 343.568 98.3451C342.759 97.5361 317.41 79.7375 317.41 79.7375Z" fill="#FFDE00"/>
<path id="Vector_28" d="M269.138 197.855C269.138 197.855 258.621 221.586 267.79 224.823C276.959 228.059 276.419 199.743 276.419 199.743L269.138 197.855Z" fill="#FDA57D"/>
<path id="Vector_29" d="M304.536 63.3803C303.583 61.4697 302.155 59.2656 300.023 59.3819C298.945 59.4408 298.015 60.1116 297.054 60.604C296.093 61.0965 294.862 61.4018 293.984 60.7742C292.698 59.8562 293.097 57.6789 291.947 56.5959C290.692 55.4136 288.168 56.0737 287.359 54.5515C286.926 53.7387 287.276 52.7304 287.087 51.8293C285.774 51.8539 284.418 51.8712 283.2 51.3777C281.983 50.8842 280.929 49.7407 280.963 48.4274C280.999 47.98 281.124 47.5444 281.331 47.146C281.538 46.7476 281.823 46.3945 282.168 46.1074C283.825 44.6 286.223 44.311 288.269 43.3968C289.897 42.6693 291.313 41.5355 292.913 40.7485C295.666 39.394 298.843 39.1314 301.903 39.3652C306.543 39.7198 311.235 41.2595 314.599 44.4739C317.964 47.6883 319.744 52.7595 318.293 57.1806C317.471 59.6859 315.729 61.7916 314.756 64.2425C314.16 65.9197 313.747 67.6563 313.524 69.4223L312.841 73.6108C312.947 72.959 311.516 71.3239 311.047 70.9349C310.023 70.0863 308.534 70.3742 307.583 69.5882C306.177 68.4255 305.363 65.0379 304.536 63.3803Z" fill="#2F2E41"/>
<path id="Vector_30" opacity="0.1" d="M280.734 95.6484L276.42 98.3451C276.42 98.3451 269.408 140.684 270.217 146.617C271.026 152.55 266.981 185.989 268.329 188.686C269.678 191.383 270.217 191.922 270.217 193.54C270.217 195.158 266.442 201.091 268.869 202.17C271.296 203.249 280.195 205.136 280.195 202.17C280.195 199.203 278.577 195.158 281.543 193.271C284.51 191.383 286.667 179.247 286.667 179.247C286.667 179.247 288.016 166.842 289.364 164.415C290.712 161.988 292.6 153.089 292.6 149.314C292.6 145.538 295.836 130.167 293.948 122.346C292.061 114.526 291.521 93.491 280.734 95.6484Z" fill="black"/>
<path id="Vector_31" d="M278.846 94.8393L274.531 97.5361C274.531 97.5361 267.52 139.875 268.329 145.808C269.138 151.741 265.093 185.18 266.441 187.877C267.79 190.574 268.329 191.113 268.329 192.731C268.329 194.349 264.553 200.282 266.981 201.361C269.408 202.44 278.307 204.327 278.307 201.361C278.307 198.394 276.689 194.349 279.655 192.462C282.622 190.574 284.779 178.438 284.779 178.438C284.779 178.438 286.127 166.033 287.476 163.606C288.824 161.179 290.712 152.28 290.712 148.505C290.712 144.729 293.948 129.358 292.06 121.537C290.173 113.717 289.633 92.6819 278.846 94.8393Z" fill="#FFDE00"/>
</g>
<g id="circle">
<path id="Vector_32" d="M142.864 119.325C147.394 127.691 149.053 137.313 147.586 146.713C146.119 156.113 141.607 164.772 134.744 171.36C127.88 177.948 119.044 182.102 109.592 183.183C100.14 184.263 90.5939 182.212 82.4201 177.344C74.2464 172.475 67.8965 165.058 64.3453 156.232C60.794 147.406 60.2379 137.658 62.7621 128.485C65.2863 119.312 70.7514 111.222 78.3183 105.455C85.8852 99.6881 95.1357 96.5644 104.65 96.5631C104.994 96.5631 105.338 96.5682 105.68 96.5762L105.221 78.0158C105.03 78.0141 104.841 78.0086 104.65 78.0086C90.961 78.0126 77.6589 82.5478 66.8189 90.9066C55.9789 99.2654 48.2109 110.977 44.7271 124.215C41.2432 137.453 42.2396 151.472 47.5606 164.084C52.8817 176.695 62.2281 187.191 74.1413 193.933C86.0545 200.675 99.8644 203.283 113.416 201.351C126.967 199.419 139.498 193.055 149.052 183.252C158.607 173.45 164.648 160.761 166.232 147.164C167.816 133.568 164.855 119.829 157.811 108.092L142.864 119.325Z" fill="#FCD224"/>
<path id="Vector_33" opacity="0.3" d="M142.864 119.325L157.811 108.092C152.353 98.9968 144.651 91.4548 135.443 86.1886C126.234 80.9224 115.828 78.1083 105.221 78.0158L105.681 96.5762C113.333 96.7554 120.803 98.9539 127.333 102.949C133.862 106.944 139.221 112.593 142.864 119.325V119.325Z" fill="black"/>
</g>
</g>
</g>
<defs>
<clipPath id="clip0">
<rect y="0.166748" width="436.821" height="369.833" fill="white"/>
</clipPath>
</defs>
</svg>
