<svg width="375" height="308" viewBox="0 0 375 308" fill="none" xmlns="http://www.w3.org/2000/svg">
<g id="undraw_product_iteration_kjok 1">
<g id="man">
<path id="Vector" d="M372 298.583C372.115 310.583 296.501 311.682 295.061 298.584C294.946 286.585 370.56 285.486 372 298.583Z" fill="#E6E6E6"/>
<path id="Vector_2" d="M333.21 280.427V286.046L341.895 285.535L341.774 280.907L333.21 280.427Z" fill="#FDA57D"/>
<path id="Vector_3" d="M313.797 189.492L316.862 227.807L326.569 284.003L341.894 281.959L336.786 237.513L338.83 196.644L313.797 189.492Z" fill="#2F2E41"/>
<path id="Vector_4" d="M317.884 161.394L354.666 160.883L362.84 181.829C362.84 181.829 368.97 222.188 356.198 235.47L344.959 223.72L338.829 201.242L313.797 189.492L317.884 161.394Z" fill="#2F2E41"/>
<path id="Vector_5" d="M332.699 88.3396C338.906 88.3396 343.938 83.3077 343.938 77.1005C343.938 70.8933 338.906 65.8613 332.699 65.8613C326.492 65.8613 321.46 70.8933 321.46 77.1005C321.46 83.3077 326.492 88.3396 332.699 88.3396Z" fill="#FDA57D"/>
<path id="Vector_6" d="M328.612 84.7635V96.0026L336.275 108.264C336.275 108.264 348.025 99.5787 345.47 97.5353C342.916 95.4918 342.405 79.6548 342.405 79.6548L328.612 84.7635Z" fill="#FDA57D"/>
<path id="Vector_7" d="M328.612 93.9592L320.949 103.155L324.015 167.013L348.025 166.503L352.112 110.818L347.003 96.5135L343.499 91.7457L337.297 101.111L328.612 93.9592Z" fill="#D0CDE1"/>
<path id="Vector_8" d="M316.351 127.166L310.732 148.622L316.351 170.079L307.156 182.34L298.982 143.514C298.982 143.514 305.112 111.84 305.623 108.264C306.134 104.688 307.156 104.177 307.156 104.177L311.243 104.688L316.351 127.166Z" fill="#2F2E41"/>
<path id="Vector_9" d="M357.22 135.339L360.796 141.981L361.818 153.22L359.774 165.992L366.926 177.742L374.078 145.557L366.416 104.176H363.35L357.22 135.339Z" fill="#2F2E41"/>
<path id="Vector_10" d="M330.655 295.753C331.166 298.818 330.145 298.818 338.318 299.84C346.492 300.862 344.449 294.22 344.449 294.22C344.107 291.089 343.422 288.006 342.405 285.025C340.873 280.938 332.699 286.046 332.699 286.046C332.699 286.046 330.145 292.688 330.655 295.753Z" fill="#2F2E41"/>
<path id="Vector_11" d="M342.419 80.0115L342.685 84.5549C342.685 84.5549 345.981 77.1004 346.492 69.4373C347.003 61.7743 338.318 60.2417 333.21 59.7308C328.101 59.2199 319.417 62.796 319.417 66.883C319.417 70.97 328.612 69.9482 332.188 68.9265C335.764 67.9047 337.297 76.5895 337.297 76.5895L339.34 77.1004L342.419 80.0115Z" fill="#2F2E41"/>
<path id="Vector_12" d="M325.597 97.577L328.612 93.9593L337.297 101.111L328.612 107.242L325.597 97.577Z" fill="#D0CDE1"/>
<path id="Vector_13" d="M347.003 96.5135L343.427 91.9157L337.296 101.111L344.959 106.731L347.003 96.5135Z" fill="#D0CDE1"/>
<path id="Vector_14" d="M314.819 134.318L316.862 153.731L312.775 165.481L310.221 176.72C310.221 176.72 310.221 187.448 320.438 187.959C330.655 188.47 339.34 155.774 339.34 155.774C339.34 155.774 340.872 162.927 341.894 167.014C342.916 171.101 360.285 187.448 360.285 187.448C360.285 187.448 364.372 186.938 367.948 178.764C371.524 170.59 360.796 162.927 360.796 162.927L357.731 152.198L358.753 138.916L365.905 104.177L344.704 93.1928L347.003 122.568L339.34 145.557L327.846 94.7254L324.014 97.5352L307.667 104.177L314.819 134.318Z" fill="#2F2E41"/>
</g>
<g id="items">
<path id="Vector_15" d="M112.922 211.588C111.911 211.58 110.89 211.573 109.886 211.542L109.917 210.53C110.91 210.561 111.926 210.575 112.922 210.576C113.922 210.576 114.941 210.559 115.952 210.527L115.985 211.538C114.963 211.571 113.932 211.588 112.922 211.588ZM103.801 211.16C101.785 210.969 99.75 210.711 97.7514 210.392L97.9111 209.393C99.8884 209.708 101.902 209.964 103.896 210.153L103.801 211.16ZM122.07 211.149L121.974 210.142C123.967 209.951 125.98 209.693 127.957 209.374L128.119 210.374C126.12 210.696 124.085 210.957 122.07 211.149H122.07ZM91.7635 209.237C89.7902 208.79 87.8047 208.271 85.8626 207.698L86.1495 206.727C88.0709 207.295 90.0351 207.807 91.9874 208.249L91.7635 209.237ZM134.105 209.212L133.88 208.225C135.837 207.779 137.8 207.264 139.716 206.695L140.004 207.666C138.068 208.241 136.083 208.761 134.105 209.212H134.105ZM80.0724 205.782C78.1683 205.082 76.2632 204.312 74.41 203.492L74.8198 202.566C76.6529 203.377 78.5375 204.139 80.4214 204.831L80.0724 205.782ZM145.792 205.742L145.442 204.792C147.314 204.102 149.192 203.34 151.024 202.528L151.434 203.453C149.582 204.275 147.684 205.045 145.791 205.742H145.792ZM68.9089 200.842C67.117 199.907 65.3276 198.899 63.5908 197.846L64.1158 196.98C65.8343 198.022 67.6044 199.019 69.3773 199.945L68.9089 200.842ZM156.92 200.805L156.451 199.908C158.22 198.983 159.986 197.986 161.7 196.944L162.226 197.81C160.494 198.862 158.709 199.87 156.92 200.805H156.92ZM58.4771 194.515C56.8174 193.357 55.1725 192.128 53.5878 190.865L54.219 190.073C55.787 191.323 57.4145 192.538 59.0564 193.684L58.4771 194.515ZM167.331 194.479L166.751 193.649C168.393 192.502 170.018 191.287 171.582 190.038L172.214 190.829C170.633 192.091 168.99 193.319 167.331 194.479ZM48.9419 186.91C47.4416 185.548 45.9666 184.121 44.5585 182.669L45.2852 181.964C46.6784 183.4 48.1379 184.812 49.6226 186.16L48.9419 186.91ZM176.855 186.874L176.174 186.125C177.655 184.78 179.113 183.367 180.508 181.927L181.235 182.631C179.825 184.087 178.351 185.515 176.855 186.874ZM40.4547 178.159C39.1411 176.618 37.8603 175.016 36.6475 173.397L37.4579 172.79C38.6579 174.392 39.925 175.978 41.2249 177.501L40.4547 178.159ZM185.338 178.117L184.568 177.46C185.867 175.935 187.135 174.348 188.335 172.743L189.145 173.349C187.933 174.971 186.652 176.575 185.338 178.116V178.117ZM33.1524 168.402C32.0449 166.706 30.9791 164.955 29.9845 163.196L30.8659 162.698C31.8496 164.437 32.9042 166.171 34.0001 167.848L33.1524 168.402ZM192.642 168.347L191.793 167.794C192.89 166.113 193.944 164.377 194.928 162.634L195.81 163.131C194.816 164.894 193.749 166.649 192.642 168.347ZM27.1575 157.799C26.2767 155.977 25.4445 154.105 24.6842 152.233L25.6219 151.852C26.3743 153.703 27.1976 155.556 28.0691 157.358L27.1575 157.799ZM198.638 157.72L197.727 157.28C198.598 155.475 199.421 153.617 200.174 151.757L201.113 152.137C200.351 154.017 199.519 155.895 198.638 157.72ZM22.571 146.512C21.9306 144.589 21.3456 142.622 20.832 140.666L21.8112 140.409C22.3191 142.344 22.898 144.29 23.5315 146.192L22.571 146.512ZM203.222 146.405L202.261 146.087C202.891 144.187 203.468 142.24 203.974 140.301L204.954 140.557C204.441 142.518 203.859 144.485 203.222 146.405ZM19.4739 134.721C19.087 132.735 18.7598 130.71 18.501 128.701L19.505 128.572C19.761 130.559 20.0848 132.562 20.4674 134.527L19.4739 134.721ZM206.305 134.61L205.311 134.418C205.691 132.454 206.013 130.449 206.266 128.46L207.271 128.589C207.014 130.599 206.689 132.625 206.305 134.61V134.61ZM17.9158 122.632C17.786 120.614 17.719 118.563 17.7168 116.536L18.7292 116.535C18.7314 118.541 18.7976 120.57 18.9261 122.566L17.9158 122.632ZM207.849 122.518L206.839 122.454C206.965 120.46 207.029 118.43 207.029 116.424L207.028 116.202H208.041L208.041 116.42C208.041 118.452 207.976 120.502 207.849 122.518ZM18.9121 110.504L17.9017 110.442C18.0272 108.42 18.2193 106.377 18.4726 104.37L19.4771 104.497C19.2262 106.483 19.0361 108.504 18.9121 110.504ZM206.825 110.172C206.693 108.171 206.496 106.15 206.239 104.167L207.242 104.037C207.503 106.041 207.702 108.083 207.835 110.105L206.825 110.172ZM20.4252 98.5392L19.4311 98.3479C19.813 96.3609 20.2653 94.3596 20.7749 92.3996L21.7547 92.6542C21.2504 94.5935 20.8031 96.5732 20.4252 98.5392ZM205.268 98.2127C204.883 96.2458 204.428 94.2675 203.918 92.3324L204.897 92.0744C205.413 94.0302 205.872 96.0298 206.262 98.0179L205.268 98.2127ZM23.4615 86.8671L22.5001 86.5497C23.1355 84.6261 23.8429 82.6965 24.6029 80.8143L25.5416 81.1934C24.7897 83.0554 24.09 84.9642 23.4615 86.8671ZM202.192 86.5515C201.556 84.6513 200.851 82.7479 200.095 80.8939L201.032 80.5118C201.796 82.3858 202.51 84.3097 203.152 86.2302L202.192 86.5515ZM27.9835 75.6669L27.071 75.2279C27.9492 73.4024 28.8988 71.5808 29.8931 69.814L30.7755 70.3108C29.7915 72.0586 28.8523 73.8606 27.9835 75.6669ZM197.642 75.3908C196.77 73.5932 195.827 71.7978 194.838 70.0545L195.719 69.5553C196.718 71.317 197.671 73.132 198.552 74.9494L197.642 75.3908ZM33.9045 65.1459L33.0557 64.5937C34.1598 62.8967 35.3341 61.2123 36.5456 59.5877L37.3573 60.1927C36.1586 61.8003 34.9967 63.4667 33.9045 65.1459ZM191.698 64.9076C190.602 63.2346 189.437 61.5734 188.234 59.9703L189.044 59.3627C190.26 60.9831 191.438 62.6621 192.545 64.353L191.698 64.9076ZM41.1186 55.4717L40.3474 54.8162C41.6586 53.2736 43.037 51.7531 44.4443 50.297L45.1725 51.0005C43.78 52.4412 42.4162 53.9457 41.1186 55.4717ZM184.462 55.263C183.16 53.7413 181.792 52.2412 180.396 50.8047L181.121 50.0993C182.533 51.5509 183.915 53.067 185.231 54.6051L184.462 55.263ZM49.502 46.7969L48.8203 46.0485C50.3183 44.6839 51.8784 43.3515 53.4568 42.0885L54.0895 42.8789C52.5277 44.1286 50.9842 45.4469 49.502 46.7969ZM176.053 46.6133C174.569 45.2695 173.021 43.9551 171.452 42.7069L172.083 41.9145C173.668 43.1763 175.233 44.5045 176.732 45.8629L176.053 46.6133ZM58.9163 39.2617L58.3355 38.4327C59.9919 37.2718 61.7082 36.1494 63.4366 35.0965L63.9633 35.961C62.2534 37.0028 60.5552 38.1133 58.9163 39.2617ZM166.611 39.1005C164.963 37.9534 163.259 36.8466 161.547 35.8108L162.071 34.9447C163.802 35.9915 165.524 37.1101 167.189 38.2696L166.611 39.1005ZM69.209 32.9911L68.7389 32.0944C70.5285 31.1557 72.3733 30.2624 74.2213 29.4396L74.6331 30.3645C72.8046 31.1784 70.9799 32.0623 69.209 32.9911ZM156.282 32.8522C154.505 31.9268 152.673 31.0472 150.837 30.2375L151.246 29.3111C153.101 30.1295 154.953 31.0188 156.75 31.954L156.282 32.8522ZM80.2127 28.0936L79.8613 27.144C81.7595 26.4418 83.7058 25.7922 85.6465 25.2136L85.9357 26.184C84.0158 26.7562 82.0904 27.3988 80.2127 28.0936H80.2127ZM145.233 27.9786C143.351 27.2903 141.423 26.6546 139.503 26.0896L139.788 25.1182C141.73 25.6894 143.679 26.332 145.581 27.0281L145.233 27.9786ZM91.7699 24.6479L91.544 23.6612C93.5136 23.2099 95.5272 22.8166 97.529 22.4916L97.6911 23.4911C95.7106 23.8125 93.7185 24.2015 91.7699 24.6479ZM133.663 24.5742C131.711 24.1343 129.717 23.7522 127.737 23.4383L127.896 22.4382C129.897 22.7556 131.912 23.1419 133.885 23.5865L133.663 24.5742ZM103.674 22.7163L103.576 21.7088C105.586 21.5138 107.634 21.3806 109.661 21.3131L109.695 22.325C107.688 22.3918 105.663 22.5235 103.674 22.7163ZM121.752 22.6849C119.76 22.4988 117.734 22.3742 115.73 22.3147L115.76 21.3028C117.785 21.3631 119.833 21.4889 121.846 21.677L121.752 22.6849Z" fill="black"/>
<path id="Vector_16" d="M109.335 47.582C122.475 47.582 133.126 36.9304 133.126 23.791C133.126 10.6516 122.475 0 109.335 0C96.1963 0 85.5449 10.6516 85.5449 23.791C85.5449 36.9304 96.1963 47.582 109.335 47.582Z" fill="#FFDE00"/>
<path id="Vector_17" d="M201.46 112.374C214.6 112.374 225.251 101.723 225.251 88.5835C225.251 75.4441 214.6 64.7925 201.46 64.7925C188.321 64.7925 177.67 75.4441 177.67 88.5835C177.67 101.723 188.321 112.374 201.46 112.374Z" fill="#FFDE00"/>
<path id="Vector_18" d="M172.608 211.588C185.747 211.588 196.398 200.936 196.398 187.797C196.398 174.658 185.747 164.006 172.608 164.006C159.469 164.006 148.817 174.658 148.817 187.797C148.817 200.936 159.469 211.588 172.608 211.588Z" fill="#FFDE00"/>
<path id="Vector_19" d="M58.211 215.637C71.3501 215.637 82.0015 204.986 82.0015 191.846C82.0015 178.707 71.3501 168.055 58.211 168.055C45.0718 168.055 34.4204 178.707 34.4204 191.846C34.4204 204.986 45.0718 215.637 58.211 215.637Z" fill="#FFDE00"/>
<path id="Vector_20" d="M23.7906 112.374C36.9297 112.374 47.5811 101.723 47.5811 88.5835C47.5811 75.4441 36.9297 64.7925 23.7906 64.7925C10.6514 64.7925 0 75.4441 0 88.5835C0 101.723 10.6514 112.374 23.7906 112.374Z" fill="#FFDE00"/>
<path id="Vector_21" d="M119.53 21.8943H111.232C110.478 21.8943 109.754 21.5945 109.22 21.0609C108.687 20.5274 108.387 19.8037 108.387 19.0491V10.7507C108.387 10.7196 108.381 10.6887 108.369 10.66C108.357 10.6312 108.34 10.605 108.318 10.583C108.296 10.561 108.269 10.5436 108.241 10.5316C108.212 10.5197 108.181 10.5136 108.15 10.5136H102.697C101.691 10.5136 100.726 10.9133 100.014 11.6247C99.303 12.3361 98.9033 13.301 98.9033 14.3071V33.2749C98.9033 34.281 99.303 35.246 100.014 35.9574C100.726 36.6688 101.691 37.0685 102.697 37.0685H115.974C116.98 37.0685 117.945 36.6688 118.656 35.9574C119.368 35.246 119.768 34.281 119.768 33.2749V22.1314C119.768 22.1002 119.761 22.0694 119.75 22.0406C119.738 22.0119 119.72 21.9857 119.698 21.9637C119.676 21.9417 119.65 21.9242 119.621 21.9123C119.592 21.9004 119.562 21.8943 119.53 21.8943ZM114.077 31.3782H104.594C104.342 31.3782 104.101 31.2782 103.923 31.1004C103.745 30.9225 103.645 30.6813 103.645 30.4298C103.645 30.1782 103.745 29.937 103.923 29.7592C104.101 29.5813 104.342 29.4814 104.594 29.4814H114.077C114.329 29.4814 114.57 29.5813 114.748 29.7592C114.926 29.937 115.026 30.1782 115.026 30.4298C115.026 30.6813 114.926 30.9225 114.748 31.1004C114.57 31.2782 114.329 31.3782 114.077 31.3782ZM114.077 26.6362H104.594C104.342 26.6362 104.101 26.5363 103.923 26.3584C103.745 26.1806 103.645 25.9394 103.645 25.6878C103.645 25.4363 103.745 25.1951 103.923 25.0172C104.101 24.8393 104.342 24.7394 104.594 24.7394H114.077C114.329 24.7394 114.57 24.8393 114.748 25.0172C114.926 25.1951 115.026 25.4363 115.026 25.6878C115.026 25.9394 114.926 26.1806 114.748 26.3584C114.57 26.5363 114.329 26.6362 114.077 26.6362Z" fill="black"/>
<path id="Vector_22" d="M119.01 19.7953L110.486 11.271C110.469 11.2546 110.448 11.2433 110.425 11.2388C110.402 11.2343 110.379 11.2366 110.357 11.2456C110.335 11.2545 110.317 11.2696 110.304 11.289C110.291 11.3084 110.284 11.3312 110.284 11.3546V19.049C110.284 19.3005 110.384 19.5418 110.561 19.7196C110.739 19.8975 110.981 19.9974 111.232 19.9974H118.926C118.95 19.9973 118.973 19.9903 118.992 19.9773C119.011 19.9642 119.026 19.9457 119.035 19.9241C119.044 19.9025 119.047 19.8788 119.042 19.8559C119.038 19.8329 119.026 19.8119 119.01 19.7953L119.01 19.7953Z" fill="black"/>
<path id="Vector_23" d="M176.049 183.11C175.757 183.11 175.475 183.212 175.249 183.397C175.024 183.582 174.87 183.84 174.813 184.126C174.756 184.412 174.801 184.709 174.938 184.966C175.076 185.223 175.298 185.425 175.568 185.536C175.837 185.648 176.137 185.662 176.416 185.577C176.695 185.493 176.937 185.314 177.099 185.071C177.26 184.828 177.333 184.537 177.305 184.247C177.276 183.957 177.147 183.685 176.941 183.479C176.824 183.362 176.685 183.269 176.532 183.206C176.379 183.143 176.215 183.11 176.049 183.11Z" fill="black"/>
<path id="Vector_24" d="M183.069 178.068V178.064C183.029 177.889 182.941 177.729 182.814 177.601C182.688 177.473 182.528 177.383 182.354 177.341C180.946 176.998 178.732 177.364 176.278 178.347C173.918 179.264 171.758 180.631 169.92 182.372C169.418 182.872 168.952 183.406 168.524 183.97C167.58 183.905 166.634 184.057 165.757 184.415C163.03 185.615 162.251 188.687 162.044 189.949C162.014 190.128 162.025 190.312 162.078 190.485C162.13 190.659 162.223 190.819 162.347 190.951C162.471 191.084 162.624 191.186 162.794 191.25C162.965 191.313 163.147 191.337 163.328 191.319H163.334L166.372 190.987C166.376 191.026 166.381 191.061 166.384 191.094C166.423 191.464 166.588 191.81 166.851 192.073L168.334 193.556C168.597 193.82 168.942 193.986 169.313 194.024L169.414 194.035L169.084 197.07V197.076C169.068 197.23 169.082 197.386 169.126 197.535C169.171 197.684 169.244 197.822 169.342 197.942C169.44 198.063 169.56 198.163 169.696 198.236C169.833 198.31 169.982 198.356 170.137 198.372C170.173 198.376 170.21 198.378 170.246 198.379C170.312 198.379 170.377 198.373 170.442 198.362C171.71 198.158 174.781 197.389 175.978 194.647C176.333 193.773 176.485 192.831 176.424 191.891C176.992 191.464 177.528 190.998 178.028 190.495C179.768 188.674 181.137 186.531 182.058 184.187C183.035 181.761 183.403 179.53 183.069 178.068ZM178.011 186.33C177.623 186.718 177.129 186.983 176.59 187.09C176.052 187.198 175.493 187.143 174.986 186.933C174.479 186.723 174.045 186.368 173.74 185.911C173.434 185.455 173.271 184.918 173.271 184.369C173.271 183.82 173.433 183.283 173.738 182.826C174.043 182.37 174.476 182.014 174.983 181.803C175.491 181.593 176.049 181.537 176.587 181.644C177.126 181.751 177.621 182.015 178.009 182.403L178.011 182.405C178.532 182.918 178.827 183.616 178.833 184.347C178.838 185.077 178.553 185.78 178.041 186.3L178.011 186.33Z" fill="black"/>
<path id="Vector_25" d="M168.164 193.959C167.982 193.936 167.797 193.981 167.645 194.085C167.343 194.291 167.04 194.495 166.734 194.694C166.601 194.78 166.443 194.818 166.286 194.803C166.128 194.788 165.98 194.721 165.866 194.612C165.752 194.503 165.677 194.359 165.655 194.202C165.632 194.046 165.663 193.886 165.741 193.749L166.315 192.757C166.397 192.637 166.443 192.496 166.447 192.351C166.451 192.206 166.413 192.062 166.337 191.938C166.262 191.814 166.152 191.714 166.021 191.651C165.89 191.587 165.744 191.563 165.599 191.581C164.962 191.661 164.37 191.951 163.916 192.406C163.743 192.579 163.218 193.105 162.935 195.11C162.854 195.686 162.803 196.266 162.782 196.847C162.78 196.947 162.797 197.045 162.833 197.138C162.868 197.231 162.922 197.315 162.99 197.387C163.058 197.459 163.14 197.517 163.231 197.557C163.322 197.598 163.419 197.62 163.519 197.622C163.525 197.623 163.532 197.623 163.538 197.623H163.557C164.139 197.602 164.719 197.552 165.296 197.471C167.302 197.188 167.828 196.662 168.001 196.489C168.457 196.035 168.747 195.44 168.822 194.801C168.847 194.602 168.791 194.401 168.668 194.243C168.544 194.086 168.363 193.983 168.164 193.959Z" fill="black"/>
<path id="Vector_26" d="M50.0233 204.774H48.2996C47.9567 204.774 47.6279 204.638 47.3855 204.396C47.143 204.153 47.0068 203.825 47.0068 203.482V195.725C47.0068 195.382 47.143 195.053 47.3855 194.811C47.6279 194.568 47.9567 194.432 48.2996 194.432H50.0233C50.3662 194.432 50.695 194.568 50.9375 194.811C51.1799 195.053 51.3161 195.382 51.3161 195.725V203.482C51.3161 203.825 51.1799 204.153 50.9375 204.396C50.695 204.638 50.3662 204.774 50.0233 204.774Z" fill="black"/>
<path id="Vector_27" d="M62.0893 204.775H60.3656C60.0227 204.775 59.6938 204.638 59.4514 204.396C59.209 204.153 59.0728 203.825 59.0728 203.482V190.554C59.0728 190.211 59.209 189.882 59.4514 189.64C59.6938 189.397 60.0227 189.261 60.3656 189.261H62.0893C62.4321 189.261 62.7609 189.397 63.0034 189.64C63.2458 189.882 63.382 190.211 63.382 190.554V203.482C63.382 203.825 63.2458 204.153 63.0034 204.396C62.7609 204.638 62.4321 204.775 62.0893 204.775Z" fill="black"/>
<path id="Vector_28" d="M68.122 204.774H66.3982C66.0554 204.774 65.7266 204.638 65.4841 204.396C65.2417 204.153 65.1055 203.825 65.1055 203.482V184.521C65.1055 184.178 65.2417 183.849 65.4841 183.606C65.7266 183.364 66.0554 183.228 66.3982 183.228H68.122C68.4648 183.228 68.7937 183.364 69.0361 183.606C69.2785 183.849 69.4147 184.178 69.4147 184.521V203.482C69.4147 203.825 69.2785 204.153 69.0361 204.396C68.7937 204.638 68.4648 204.774 68.122 204.774Z" fill="black"/>
<path id="Vector_29" d="M56.0565 204.775H54.3328C53.99 204.775 53.6611 204.638 53.4187 204.396C53.1762 204.153 53.04 203.825 53.04 203.482V180.211C53.04 179.868 53.1762 179.54 53.4187 179.297C53.6611 179.055 53.99 178.918 54.3328 178.918H56.0565C56.3994 178.918 56.7282 179.055 56.9707 179.297C57.2131 179.54 57.3493 179.868 57.3493 180.211V203.482C57.3493 203.651 57.3159 203.82 57.2509 203.976C57.1859 204.133 57.0907 204.276 56.9707 204.396C56.8506 204.516 56.7081 204.611 56.5512 204.676C56.3944 204.741 56.2263 204.775 56.0565 204.775Z" fill="black"/>
<path id="Vector_30" d="M202.6 87.9604L201.368 86.7284C201.086 86.4462 200.704 86.2873 200.305 86.2862C199.906 86.2851 199.523 86.4421 199.239 86.7227L190.677 94.6245C190.363 94.9028 190.171 95.2934 190.142 95.7122C190.133 95.9201 190.167 96.1277 190.242 96.322C190.316 96.5163 190.43 96.6931 190.576 96.8413L192.416 98.7011L192.419 98.7044C192.703 98.9877 193.088 99.1474 193.489 99.1487H193.545C193.753 99.137 193.956 99.0845 194.144 98.9941C194.332 98.9037 194.499 98.7772 194.638 98.6219L202.595 90.0989C202.879 89.8171 203.04 89.4339 203.041 89.0336C203.043 88.6333 202.886 88.2487 202.604 87.9644L202.6 87.9604Z" fill="black"/>
<path id="Vector_31" d="M212.497 85.4705L212.483 85.4558L210.866 83.856C210.772 83.7616 210.659 83.6869 210.536 83.6362C210.412 83.5856 210.279 83.5599 210.146 83.5607C209.929 83.5609 209.718 83.6292 209.543 83.756C209.543 83.7357 209.545 83.7159 209.547 83.6984C209.612 83.2853 209.525 82.8625 209.302 82.5089C208.945 82.0289 208.554 81.5758 208.132 81.1533L208.128 81.1495C206.946 80.0159 205.558 79.1201 204.038 78.511C203.243 78.185 202.393 78.0175 201.534 78.0181C200.423 78.0081 199.343 78.3864 198.48 79.0879C198.235 79.3223 198.011 79.5783 197.811 79.8529C197.716 79.9845 197.666 80.1433 197.668 80.3058C197.67 80.4683 197.725 80.6257 197.824 80.7547C197.922 80.8836 198.06 80.9773 198.217 81.0217C198.373 81.066 198.539 81.0588 198.691 81.001C198.823 80.9515 198.959 80.9101 199.096 80.8769C199.382 80.8164 199.675 80.7982 199.966 80.8227C200.57 80.8856 201.148 81.0978 201.649 81.4401C201.93 81.6767 202.154 81.9742 202.303 82.3099C202.452 82.6457 202.523 83.0109 202.511 83.3781C202.301 83.9747 201.981 84.5264 201.567 85.0044C201.457 85.1499 201.403 85.3304 201.416 85.5125C201.428 85.6946 201.506 85.866 201.636 85.9949L203.259 87.6179C203.395 87.7546 203.579 87.8339 203.772 87.8393C203.965 87.8447 204.152 87.776 204.296 87.6472C204.755 87.2373 205.454 86.6194 205.699 86.468C205.907 86.3283 206.144 86.235 206.392 86.1944C206.577 86.1763 206.763 86.2155 206.924 86.3067C206.925 86.3148 206.924 86.3229 206.922 86.3306C206.919 86.3384 206.915 86.3455 206.91 86.3515L206.824 86.4331L206.81 86.4463C206.619 86.6363 206.512 86.8943 206.511 87.1635C206.511 87.4327 206.617 87.6911 206.807 87.8818L206.812 87.8868L208.428 89.4862C208.523 89.5805 208.635 89.6551 208.759 89.7057C208.883 89.7563 209.015 89.7819 209.149 89.781C209.417 89.7814 209.675 89.6764 209.867 89.4885L212.484 86.9029C212.493 86.8939 212.502 86.8845 212.511 86.875C212.686 86.6825 212.783 86.4307 212.78 86.1702C212.778 85.9096 212.677 85.6596 212.497 85.4705Z" fill="black"/>
<path id="Vector_32" d="M27.5678 87.1669C27.3811 87.1669 27.1985 87.1115 27.0432 87.0077C26.8879 86.904 26.7669 86.7565 26.6954 86.5839C26.6239 86.4114 26.6053 86.2215 26.6417 86.0383C26.6781 85.8552 26.768 85.6869 26.9001 85.5548L29.0653 83.3895L26.9001 81.2242C26.723 81.0471 26.6235 80.8069 26.6235 80.5565C26.6235 80.306 26.723 80.0658 26.9001 79.8887C27.0772 79.7116 27.3174 79.6122 27.5678 79.6122C27.8183 79.6122 28.0585 79.7116 28.2356 79.8887L31.0686 82.7218C31.1562 82.8095 31.2258 82.9136 31.2733 83.0281C31.3207 83.1427 31.3452 83.2655 31.3452 83.3895C31.3452 83.5135 31.3207 83.6363 31.2733 83.7509C31.2258 83.8655 31.1562 83.9696 31.0686 84.0573L28.2356 86.8903C28.148 86.9781 28.0439 87.0478 27.9293 87.0952C27.8147 87.1427 27.6919 87.1671 27.5678 87.1669Z" fill="black"/>
<path id="Vector_33" d="M12.4585 89.9999C12.3345 89.9999 12.2117 89.9755 12.0971 89.928C11.9825 89.8806 11.8784 89.811 11.7907 89.7233C11.703 89.6356 11.6335 89.5315 11.586 89.417C11.5386 89.3024 11.5142 89.1796 11.5142 89.0556V88.1112C11.5216 86.6112 12.1205 85.1748 13.1809 84.1139C14.2412 83.053 15.6774 82.4533 17.1773 82.4451H29.4564C29.7069 82.4451 29.9471 82.5446 30.1242 82.7217C30.3013 82.8988 30.4007 83.139 30.4007 83.3895C30.4007 83.6399 30.3013 83.8801 30.1242 84.0572C29.9471 84.2343 29.7069 84.3338 29.4564 84.3338H17.1801C16.1797 84.3398 15.2219 84.74 14.5147 85.4478C13.8075 86.1555 13.408 87.1136 13.4028 88.114V89.0556C13.4028 89.1796 13.3784 89.3024 13.3309 89.4169C13.2835 89.5315 13.2139 89.6356 13.1262 89.7233C13.0386 89.811 12.9345 89.8806 12.8199 89.928C12.7053 89.9755 12.5825 89.9999 12.4585 89.9999Z" fill="black"/>
<path id="Vector_34" d="M20.0132 97.5547C19.8891 97.5549 19.7663 97.5305 19.6517 97.483C19.5371 97.4356 19.433 97.3659 19.3454 97.2781L16.5125 94.4451C16.4248 94.3574 16.3552 94.2533 16.3077 94.1387C16.2603 94.0241 16.2358 93.9013 16.2358 93.7773C16.2358 93.6533 16.2603 93.5305 16.3077 93.4159C16.3552 93.3014 16.4248 93.1973 16.5125 93.1096L19.3454 90.2766C19.5226 90.0997 19.7627 90.0005 20.013 90.0006C20.2633 90.0007 20.5033 90.1002 20.6803 90.2772C20.8573 90.4542 20.9567 90.6942 20.9569 90.9445C20.957 91.1948 20.8577 91.4349 20.6809 91.612L18.5157 93.7773L20.6809 95.9426C20.813 96.0747 20.9029 96.2429 20.9393 96.4261C20.9758 96.6093 20.9571 96.7992 20.8856 96.9717C20.8141 97.1443 20.6931 97.2918 20.5378 97.3955C20.3825 97.4993 20.1999 97.5547 20.0132 97.5547Z" fill="black"/>
<path id="Vector_35" d="M18.1245 94.7217C17.874 94.7217 17.6339 94.6222 17.4568 94.4451C17.2797 94.268 17.1802 94.0278 17.1802 93.7774C17.1802 93.5269 17.2797 93.2867 17.4568 93.1096C17.6339 92.9325 17.874 92.833 18.1245 92.833H30.4008C31.4012 92.8271 32.359 92.4268 33.0661 91.7191C33.7733 91.0114 34.1729 90.0533 34.1781 89.0528V88.1113C34.1781 87.8609 34.2775 87.6207 34.4546 87.4436C34.6317 87.2665 34.8719 87.167 35.1224 87.167C35.3728 87.167 35.613 87.2665 35.7901 87.4436C35.9672 87.6207 36.0667 87.8609 36.0667 88.1113V89.0557C36.0593 90.5556 35.4604 91.9921 34.4 93.053C33.3396 94.1139 31.9035 94.7136 30.4035 94.7217L18.1245 94.7217Z" fill="black"/>
</g>
<g id="leg">
<path id="Vector_36" d="M315.84 256.927L310.221 259.992L313.797 271.742L319.416 272.253L322.481 265.612L315.84 256.927Z" fill="#FDA57D"/>
<path id="Vector_37" d="M313.797 256.416C313.797 256.416 306.645 258.459 304.09 258.97C301.536 259.481 305.623 269.188 305.623 269.188C305.623 269.188 308.177 282.47 308.688 285.025C309.199 287.579 312.775 296.264 317.373 297.286C321.971 298.307 318.905 279.405 318.905 279.405C318.905 279.405 320.949 273.275 320.949 271.231C320.949 269.188 317.884 270.209 317.884 270.209C309.71 269.188 313.797 256.416 313.797 256.416Z" fill="#2F2E41"/>
<path id="Vector_38" d="M313.797 256.927L344.959 223.72L356.198 235.47C343.427 248.753 326.058 272.253 326.058 272.253L313.797 256.927Z" fill="#2F2E41"/>
</g>
</g>
</svg>
