<svg width="411" height="283" viewBox="0 0 411 283" fill="none" xmlns="http://www.w3.org/2000/svg">
<g id="stars">
<g id="bg">
<path id="Vector" d="M143.442 101.234L142.134 100.401L142.967 99.0942L142.61 98.8677L141.778 100.175L140.47 99.3429L140.243 99.6992L141.551 100.531L140.719 101.839L141.076 102.066L141.907 100.758L143.215 101.59L143.442 101.234Z" fill="#6C63FF"/>
<path id="Vector_2" d="M240.69 195.893L239.382 195.06L240.215 193.753L239.858 193.527L239.026 194.834L237.718 194.002L237.491 194.358L238.799 195.19L237.967 196.498L238.324 196.725L239.155 195.417L240.463 196.249L240.69 195.893Z" fill="#6C63FF"/>
<path id="Vector_3" d="M83.3025 184.38L81.9947 183.548L82.8271 182.241L82.4701 182.014L81.6384 183.321L80.3306 182.489L80.1035 182.846L81.4112 183.678L80.5789 184.985L80.9359 185.212L81.7676 183.905L83.0753 184.736L83.3025 184.38Z" fill="#6C63FF"/>
<path id="Vector_4" d="M201.023 245.78L199.715 244.948L200.548 243.641L200.191 243.414L199.359 244.722L198.051 243.89L197.824 244.246L199.132 245.078L198.3 246.385L198.657 246.612L199.488 245.305L200.796 246.137L201.023 245.78Z" fill="#6C63FF"/>
<path id="Vector_5" d="M91.6198 222.116L90.3121 221.283L91.1444 219.976L90.7875 219.75L89.9557 221.057L88.648 220.225L88.4209 220.581L89.7286 221.413L88.8963 222.721L89.2533 222.948L90.085 221.64L91.3927 222.472L91.6198 222.116Z" fill="#6C63FF"/>
<path id="Vector_6" d="M80.1038 144.278C80.8105 144.278 81.3834 143.705 81.3834 142.999C81.3834 142.292 80.8105 141.72 80.1038 141.72C79.3971 141.72 78.8242 142.292 78.8242 142.999C78.8242 143.705 79.3971 144.278 80.1038 144.278Z" fill="#FF6584"/>
<path id="Vector_7" d="M160.077 40.665C160.784 40.665 161.357 40.0923 161.357 39.3858C161.357 38.6793 160.784 38.1066 160.077 38.1066C159.371 38.1066 158.798 38.6793 158.798 39.3858C158.798 40.0923 159.371 40.665 160.077 40.665Z" fill="#FF6584"/>
<path id="Vector_8" d="M232.372 155.791C233.433 155.791 234.292 154.932 234.292 153.872C234.292 152.812 233.433 151.953 232.372 151.953C231.312 151.953 230.453 152.812 230.453 153.872C230.453 154.932 231.312 155.791 232.372 155.791Z" fill="white"/>
</g>
<g id="star3">
<path id="Vector_9" d="M355.212 190.776L353.904 189.944L354.736 188.636L354.379 188.41L353.548 189.717L352.24 188.885L352.013 189.241L353.32 190.074L352.488 191.381L352.845 191.608L353.677 190.301L354.984 191.132L355.212 190.776Z" fill="#6C63FF"/>
<path id="Vector_10" d="M64.7487 113.386L63.441 112.554L64.2734 111.246L63.9164 111.02L63.0847 112.327L61.7769 111.495L61.5498 111.851L62.8575 112.683L62.0252 113.991L62.3822 114.218L63.2139 112.911L64.5216 113.742L64.7487 113.386Z" fill="#6C63FF"/>
<path id="Vector_11" d="M174.152 127.763L172.321 126.599L173.486 124.768L172.987 124.451L171.822 126.281L169.992 125.116L169.674 125.616L171.505 126.78L170.34 128.61L170.839 128.928L172.004 127.098L173.834 128.263L174.152 127.763Z" fill="white"/>
<path id="Vector_12" d="M146.001 198.643C147.061 198.643 147.921 197.784 147.921 196.724C147.921 195.665 147.061 194.806 146.001 194.806C144.941 194.806 144.082 195.665 144.082 196.724C144.082 197.784 144.941 198.643 146.001 198.643Z" fill="#6C63FF"/>
<path id="Vector_13" d="M144.722 157.71C145.429 157.71 146.002 157.137 146.002 156.43C146.002 155.724 145.429 155.151 144.722 155.151C144.015 155.151 143.442 155.724 143.442 156.43C143.442 157.137 144.015 157.71 144.722 157.71Z" fill="#6C63FF"/>
</g>
<g id="star1">
<path id="Vector_14" d="M108.254 151.953C109.314 151.953 110.174 151.094 110.174 150.034C110.174 148.975 109.314 148.116 108.254 148.116C107.194 148.116 106.335 148.975 106.335 150.034C106.335 151.094 107.194 151.953 108.254 151.953Z" fill="#6C63FF"/>
<path id="Vector_15" d="M163.915 81.5986C164.975 81.5986 165.835 80.7395 165.835 79.6798C165.835 78.6201 164.975 77.761 163.915 77.761C162.855 77.761 161.996 78.6201 161.996 79.6798C161.996 80.7395 162.855 81.5986 163.915 81.5986Z" fill="#6C63FF"/>
<path id="Vector_16" d="M154.958 229.983C158.492 229.983 161.356 227.119 161.356 223.587C161.356 220.055 158.492 217.191 154.958 217.191C151.425 217.191 148.561 220.055 148.561 223.587C148.561 227.119 151.425 229.983 154.958 229.983Z" fill="#6C63FF"/>
</g>
<g id="star2">
<path id="Vector_17" d="M33.3998 151.953C34.4599 151.953 35.3192 151.094 35.3192 150.034C35.3192 148.975 34.4599 148.116 33.3998 148.116C32.3398 148.116 31.4805 148.975 31.4805 150.034C31.4805 151.094 32.3398 151.953 33.3998 151.953Z" fill="#6C63FF"/>
<path id="Vector_18" d="M275.878 213.993C276.585 213.993 277.158 213.421 277.158 212.714C277.158 212.008 276.585 211.435 275.878 211.435C275.172 211.435 274.599 212.008 274.599 212.714C274.599 213.421 275.172 213.993 275.878 213.993Z" fill="#FF6584"/>
<path id="Vector_19" d="M107.615 100.147C108.321 100.147 108.894 99.5739 108.894 98.8674C108.894 98.161 108.321 97.5883 107.615 97.5883C106.908 97.5883 106.335 98.161 106.335 98.8674C106.335 99.5739 106.908 100.147 107.615 100.147Z" fill="#6C63FF"/>
<path id="Vector_20" d="M123.61 57.2943C124.316 57.2943 124.889 56.7215 124.889 56.0151C124.889 55.3086 124.316 54.7359 123.61 54.7359C122.903 54.7359 122.33 55.3086 122.33 56.0151C122.33 56.7215 122.903 57.2943 123.61 57.2943Z" fill="white"/>
<path id="Vector_21" d="M187.587 180.095C188.647 180.095 189.507 179.236 189.507 178.176C189.507 177.117 188.647 176.258 187.587 176.258C186.527 176.258 185.668 177.117 185.668 178.176C185.668 179.236 186.527 180.095 187.587 180.095Z" fill="#6C63FF"/>
<path id="Vector_22" d="M314.905 173.06C315.965 173.06 316.824 172.201 316.824 171.141C316.824 170.081 315.965 169.222 314.905 169.222C313.845 169.222 312.985 170.081 312.985 171.141C312.985 172.201 313.845 173.06 314.905 173.06Z" fill="#6C63FF"/>
</g>
</g>
</svg>
