<svg width="30" height="31" viewBox="0 0 30 31" fill="none" xmlns="http://www.w3.org/2000/svg">
<g clip-path="url(#clip0)">
<path d="M30 6.43677C28.8844 6.92615 27.6956 7.25052 26.4562 7.40802C27.7312 6.64677 28.7044 5.45052 29.1619 4.00865C27.9731 4.7174 26.6606 5.21802 25.2619 5.4974C24.1331 4.29552 22.5244 3.55115 20.7694 3.55115C17.3644 3.55115 14.6231 6.3149 14.6231 9.70302C14.6231 10.1905 14.6644 10.6593 14.7656 11.1055C9.6525 10.8561 5.12813 8.40552 2.08875 4.6724C1.55812 5.59302 1.24688 6.64677 1.24688 7.78115C1.24688 9.91115 2.34375 11.7993 3.97875 12.8924C2.99062 12.8736 2.02125 12.5868 1.2 12.1349C1.2 12.1536 1.2 12.178 1.2 12.2024C1.2 15.1911 3.33187 17.6736 6.1275 18.2455C5.62687 18.3824 5.08125 18.448 4.515 18.448C4.12125 18.448 3.72375 18.4255 3.35062 18.343C4.1475 20.7786 6.40875 22.5693 9.0975 22.6274C7.005 24.2643 4.34812 25.2505 1.47188 25.2505C0.9675 25.2505 0.48375 25.228 0 25.1661C2.72438 26.923 5.95312 27.9261 9.435 27.9261C20.7525 27.9261 26.94 18.5511 26.94 10.4249C26.94 10.153 26.9306 9.89052 26.9175 9.6299C28.1381 8.76365 29.1637 7.68177 30 6.43677Z" fill="white"/>
</g>
<defs>
<clipPath id="clip0">
<rect y="0.738647" width="30" height="30" fill="white"/>
</clipPath>
</defs>
</svg>
