<svg width="278" height="555" viewBox="0 0 278 555" fill="none" xmlns="http://www.w3.org/2000/svg">
<g id="visionary">
<g id="hand">
<path id="Vector" d="M7.2373 221.134L0 263.445C0 263.445 1.67016 302.972 15.0314 301.858C28.3927 300.745 15.0314 260.661 15.0314 260.661L27.8359 225.588L7.2373 221.134Z" fill="#FDA57D"/>
<path id="Vector_2" d="M32.8464 158.225L27.8359 221.134L3.89697 217.794L12.2477 165.462V120.368L21.712 110.904L32.8464 158.225Z" fill="#FFDE00"/>
<path id="Vector_3" d="M5.01018 225.587L29.5062 230.041L30.6202 218.35L2.78418 217.237L5.01018 225.587Z" fill="#3F3D56"/>
</g>
<g id="man">
<ellipse id="Ellipse 8" cx="89.7348" cy="534.952" rx="88.8904" ry="19.4541" fill="#E6E6E6"/>
<path id="Vector_4" d="M43.7021 52.726L46.2081 71.933L48.7132 91.14L82.6731 86.13L79.3321 52.726H43.7021Z" fill="#FDA57D"/>
<path id="Vector_5" d="M130.272 211.67L122.478 241.733L115.797 252.31C115.797 252.31 120.808 272.352 125.818 271.796C130.829 271.239 134.169 252.31 134.169 252.31L153.097 211.67H130.272Z" fill="#FDA57D"/>
<path id="Vector_6" d="M37.3 234.495C37.3 234.495 33.403 253.424 24.4955 261.775C15.588 270.125 45.0941 491.699 45.0941 491.699C45.0941 491.699 65.6927 498.38 75.7136 499.493C85.7345 500.607 79.6106 382.026 79.6106 382.026V349.736C79.6106 349.736 99.6525 477.225 99.6525 478.895V487.246L109.673 497.823C109.673 497.823 126.932 493.369 129.715 497.823C132.499 502.277 139.736 502.834 141.963 504.504C144.19 506.174 129.159 272.909 129.159 272.909L113.57 248.413L37.3 234.495Z" fill="#2F2E41"/>
<path id="Vector_7" d="M60.6824 63.5829C75.4409 63.5829 87.4049 51.6188 87.4049 36.8604C87.4049 22.102 75.4409 10.1379 60.6824 10.1379C45.924 10.1379 33.96 22.102 33.96 36.8604C33.96 51.6188 45.924 63.5829 60.6824 63.5829Z" fill="#FDA57D"/>
<path id="Vector_8" d="M111.344 127.605C111.344 128.719 127.489 174.37 126.375 176.04C125.262 177.71 127.489 206.659 127.489 206.659H156.438C157.192 204.513 157.568 202.253 157.551 199.979C157.551 196.082 152.541 153.215 146.974 127.049C141.406 100.883 124.148 89.1919 124.148 89.1919L120.251 91.4188C120.251 91.4188 111.344 126.492 111.344 127.605Z" fill="#FFDE00"/>
<path id="Vector_9" d="M127.488 215.567L151.984 215.01L160.892 206.659L125.818 204.432L127.488 215.567Z" fill="#3F3D56"/>
<path id="Vector_10" d="M60.6824 252.31L65.6928 271.796C65.6928 271.796 85.7347 267.899 93.5287 265.115C101.323 262.331 123.035 259.548 123.035 259.548L115.797 246.187L60.6824 252.31Z" fill="#3F3D56"/>
<path id="Vector_11" d="M24.4959 248.413L21.7119 265.671L46.2079 270.682L52.3319 252.31L24.4959 248.413Z" fill="#3F3D56"/>
<path id="Vector_12" d="M46.2076 81.9547C46.2076 81.9547 43.9808 86.9651 29.5061 91.9756C15.0314 96.986 12.2478 120.368 12.2478 120.368C12.2478 120.368 29.506 167.133 28.9493 170.473C28.3926 173.813 31.1762 181.607 31.1762 181.607L28.3926 228.928L22.8254 250.084C72.3734 268.455 119.694 247.3 119.694 247.3C119.694 247.3 117.467 226.701 118.581 221.134C119.694 215.567 121.365 164.349 121.365 164.349L124.148 89.1919L91.3018 77.5009L85.7346 73.0472C85.7346 73.0472 84.6212 60.2426 82.951 59.1292C81.2808 58.0157 76.8271 63.5829 70.7032 70.2635C64.5793 76.9441 51.7748 75.8307 47.8778 73.6038C43.9807 71.377 42.3106 72.4904 42.3106 72.4904C39.527 74.7173 46.2076 81.9547 46.2076 81.9547Z" fill="#FFDE00"/>
<path id="Vector_13" d="M80.4925 25.6082C77.1839 16.4293 63.5224 23.5803 50.8215 26.0351C38.1207 28.4899 38.692 52.7269 38.692 52.7269C38.692 52.7269 30.8979 39.8563 30.8979 25.4477C30.8979 11.0391 37.7471 14.4549 38.7076 12.3203C39.6682 10.1857 42.2297 11.6799 42.2297 11.6799C42.2297 11.6799 43.6172 6.34334 47.4595 7.09045C48.5078 7.33326 49.6045 7.26009 50.6113 6.88018C51.618 6.50028 52.4897 5.83069 53.1162 4.95587C71.6874 -4.97005 68.8056 4.20873 75.8499 5.4895C82.8941 6.77027 81.8268 8.47796 84.0681 12.5337C85.858 16.1809 87.3569 19.9638 88.5508 23.8471C88.4083 26.467 88.6602 29.0934 89.2979 31.6384C90.3652 36.1211 87.5902 40.2836 87.5902 40.2836C84.6606 35.685 82.2786 30.7598 80.4925 25.6082V25.6082Z" fill="#2F2E41"/>
<path id="Vector_14" d="M38.4135 46.0462C39.7971 46.0462 40.9187 44.5507 40.9187 42.7059C40.9187 40.8611 39.7971 39.3656 38.4135 39.3656C37.0298 39.3656 35.9082 40.8611 35.9082 42.7059C35.9082 44.5507 37.0298 46.0462 38.4135 46.0462Z" fill="#FFB9B9"/>
<path id="Vector_15" d="M72.1862 490.706L75.1227 514.197C75.1227 514.197 78.0591 520.07 75.1227 523.007C72.1862 525.943 75.1227 533.774 75.1227 533.774C75.1227 533.774 68.2709 539.647 52.6097 538.668C36.9484 537.689 40.8638 524.964 44.779 519.091C48.6943 513.219 48.6943 501.473 48.6943 501.473L52.6096 489.727L72.1862 490.706Z" fill="#2F2E41"/>
<path id="Vector_16" d="M109.303 490.706L106.367 514.197C106.367 514.197 103.43 520.07 106.367 523.007C109.303 525.943 106.367 533.774 106.367 533.774C106.367 533.774 113.218 539.647 128.88 538.668C144.541 537.689 140.626 524.964 136.71 519.091C132.795 513.219 132.795 501.473 132.795 501.473L128.88 489.727L109.303 490.706Z" fill="#2F2E41"/>
</g>
<g id="shape">
<path id="Vector_17" d="M237.818 207.615C237.818 184.102 242.296 158.297 257.404 138.152C278.44 110.105 277.317 75.5489 272.67 51.4997C269.558 35.5251 264.393 20.02 257.305 5.3698L259.336 4.31055C266.517 19.1396 271.751 34.8345 274.908 51.0053C279.654 75.5271 280.788 110.791 259.237 139.527C218.862 193.359 255.124 289.753 255.494 290.72L253.355 291.541C246.912 273.464 242.361 254.769 239.774 235.753C238.502 226.427 237.849 217.028 237.818 207.615Z" fill="#5C54D9"/>
<path id="Vector_18" opacity="0.3" d="M258.321 4.82899C258.321 4.82899 277.463 83.8608 251.254 138.839C225.045 193.818 251.448 291.176 251.448 291.176" fill="#5C54D9"/>
<path id="Vector_19" opacity="0.3" d="M228.585 79.4409C228.628 69.8938 229.579 60.3723 231.424 51.0053C234.582 34.8345 239.816 19.1396 246.996 4.31055L249.027 5.3698C241.939 20.02 236.775 35.5251 233.662 51.4997C229.016 75.5478 227.893 110.104 248.928 138.152C270.461 166.863 270.401 207.078 266.558 235.753C263.971 254.769 259.42 273.464 252.977 291.541L250.838 290.72C251.209 289.752 287.472 193.361 247.096 139.527C232.962 120.683 228.585 99.0294 228.585 79.4409Z" fill="#5C54D9"/>
<path id="Vector_20" opacity="0.3" d="M237.809 79.8302C237.809 40.1605 252.04 4.93252 252.258 4.40408L254.376 5.27653C254.053 6.06063 222.421 84.4095 254.303 138.256C286.74 193.034 257.786 290.485 257.489 291.463L255.297 290.798C255.59 289.831 284.254 193.334 252.332 139.423C241.438 121.025 237.809 99.8605 237.809 79.8302Z" fill="#5C54D9"/>
<path id="Vector_21" opacity="0.3" d="M255.079 4.8405C255.079 4.8405 228.87 83.8608 255.079 138.839C281.288 193.818 257.555 291.13 257.555 291.13" fill="#5C54D9"/>
<path id="Vector_22" opacity="0.3" d="M258.32 4.8405C258.32 4.8405 299.554 83.8608 258.32 138.839C217.086 193.818 254.424 291.13 254.424 291.13" fill="#5C54D9"/>
</g>
</g>
</svg>
